<svg width="400" height="300" xmlns="http://www.w3.org/2000/svg">
 <g id="Layer_1">
  <title>Layer 1</title>
  <g stroke="null">
   <path stroke="null" fill="#DBD9C7" d="m189.21043,221.49098c-9.47805,5.38263 -16.6048,14.24934 -19.52728,24.7926c11.98664,6.81031 25.93181,10.71641 40.81714,10.71641l17.61335,-18.49335l-17.61335,-17.01566l-21.28986,0z"/>
   <path stroke="null" fill="#B8B7AC" d="m251.31742,246.28359c-2.73902,-9.88131 -9.17091,-18.28985 -17.77034,-23.73781l0,0c-0.0003,0 -0.0003,-0.00029 -0.00059,-0.00029c-0.57593,-0.3648 -1.16138,-0.71659 -1.75634,-1.0545l-21.28986,0l-21.28986,0c-3.45083,1.95955 -6.58769,4.38305 -9.32552,7.17887c9.5503,3.40111 21.00799,5.09473 30.61538,5.25458l0,23.07557c14.88503,0 28.8305,-3.9061 40.81714,-10.71641z"/>
   <path stroke="null" fill="#A4A49E" d="m233.04548,235.38564l0,18.52052c2.91921,-0.82094 5.77002,-1.79797 8.54354,-2.91982c-1.23601,-6.01713 -4.27385,-11.40207 -8.54354,-15.6007z"/>
   <g stroke="null">
    <path stroke="null" fill="#B8B7AC" d="m179.41126,250.98605c2.77351,1.12185 5.62433,2.09859 8.54354,2.91982l0,-18.52052c-4.26969,4.19892 -7.30723,9.58387 -8.54354,15.6007z"/>
    <circle stroke="null" fill="#B8B7AC" r="2.42055" cy="239.07437" cx="199.8454"/>
    <circle stroke="null" fill="#B8B7AC" r="2.42055" cy="249.34852" cx="199.93341"/>
   </g>
   <g stroke="null">
    <circle stroke="null" fill="#A4A49E" r="2.42055" cy="239.07437" cx="221.15785"/>
    <circle stroke="null" fill="#A4A49E" r="2.42055" cy="249.34852" cx="221.06984"/>
   </g>
   <g stroke="null">
    <polygon stroke="null" fill="#E1B872" points="196.409423828125,222.8828125 210.4610595703125,236.50576782226562 224.59085083007812,222.80679321289062 "/>
    <path stroke="null" fill="#E1B872" d="m265.10203,162.87431c-2.58381,0 -5.02134,0.60472 -7.1767,1.67136c-2.57192,-9.4587 -7.63816,-18.47774 -14.40276,-25.641l0,0c-8.74245,-9.25694 -20.32115,-15.41455 -33.02228,-15.41455c-22.52944,0 -41.52954,19.37297 -47.42504,41.05555l1.30261,38.8104c1.32075,5.23377 3.06074,9.67377 5.24167,11.72466c8.03272,7.55436 27.20082,11.15116 40.96669,11.15116s32.76182,-3.59709 40.79484,-11.15116c3.62418,-3.40805 6.03346,-13.41019 7.31793,-22.6969c1.95853,0.84204 4.1237,1.3135 6.40275,1.3135c8.75494,0 15.85225,-6.89992 15.85225,-15.41137s-7.09702,-15.41166 -15.85196,-15.41166z"/>
   </g>
   <path stroke="null" fill="#ECCE93" d="m245.32559,166.61738c-4.95504,-11.86833 -12.53968,-18.40519 -21.35646,-18.40519c-4.64403,0 -8.23758,1.84422 -10.0525,3.57021c-3.0093,2.8623 -4.75166,6.96814 -4.75166,19.48223l0,0c0,1.81213 -0.98209,3.49014 -2.58411,4.41572l0,0c-0.34491,0.19945 -8.5694,4.87966 -19.40626,4.88024c-0.00059,0 -0.00268,0 -0.00357,0c-0.13588,0 -0.27206,-0.00058 -0.40764,-0.00202c-7.13626,-0.07429 -13.5628,-3.9512 -17.1287,-9.96138c-1.53304,-2.58422 -3.81566,-4.69495 -6.56003,-6.05239c-2.4634,-1.2184 -5.29518,-1.83468 -8.29348,-1.63349c-8.02856,0.53823 -14.43695,6.98953 -14.72477,14.80838c-0.32261,8.769 6.89394,15.97677 15.84155,15.97677c2.27905,0 4.44422,-0.47117 6.40275,-1.3135c0.51171,3.69827 1.20241,7.50869 2.07627,10.97223c9.43315,5.0398 24.34851,7.46446 35.64059,7.46446c13.76587,0 32.76182,-3.59709 40.79484,-11.15116c3.12912,-2.94266 5.35287,-10.80111 6.72832,-18.87029c0.80042,-4.69351 -0.01397,-9.46969 -2.04564,-13.79782c-0.05857,-0.12488 -0.11477,-0.25322 -0.16948,-0.38301z"/>
   <circle stroke="null" fill="#D5A150" r="4.84113" cy="178.28539" cx="265.10352"/>
   <circle stroke="null" fill="#E1B872" r="4.84113" cy="178.28539" cx="155.89973"/>
   <g stroke="null">
    <path stroke="null" fill="#474641" d="m223.21599,166.20315c-1.11381,0 -2.14941,-0.68999 -2.51216,-1.77571c-0.45076,-1.34905 0.30863,-2.79813 1.69628,-3.23634c3.74252,-1.18227 7.69436,-1.18227 11.42795,-0.00029c1.38765,0.43909 2.14614,1.88873 1.69449,3.2375c-0.45165,1.34905 -1.94217,2.08703 -3.33012,1.64737c-2.66499,-0.8432 -5.48637,-0.84291 -8.15968,0.00145c-0.27087,0.08527 -0.5462,0.12603 -0.81677,0.12603z"/>
    <circle stroke="null" fill="#474641" r="4.84113" cy="178.28539" cx="192.88813"/>
    <circle stroke="null" fill="#474641" r="4.84113" cy="178.28539" cx="228.11513"/>
    <path stroke="null" fill="#474641" d="m210.50029,191.12815c-4.37048,0 -7.92598,-3.45661 -7.92598,-7.70554c0,-1.41843 1.18279,-2.56861 2.64209,-2.56861c1.45901,0 2.64209,1.14989 2.64209,2.56861c0,1.41641 1.18517,2.56861 2.64209,2.56861s2.64209,-1.1522 2.64209,-2.56861c0,-1.41843 1.18279,-2.56861 2.64209,-2.56861c1.45901,0 2.64209,1.14989 2.64209,2.56861c-0.00059,4.24893 -3.55609,7.70554 -7.92657,7.70554z"/>
   </g>
   <path stroke="null" fill="#978574" d="m264.9715,131.46622c5.29459,6.91784 -2.02899,23.80516 -7.04528,33.07945c-2.61741,1.33894 -6.20353,3.73642 -7.70417,0.14048c-11.12111,-26.6374 -32.229,-23.96617 -40.00007,-16.57571c-4.40349,4.18852 -6.3409,9.79806 -6.3409,23.15448c0,0 -20.49866,11.84954 -38.03441,-4.45214c-0.27117,-0.25351 -0.53193,-0.5102 -0.79269,-0.77064c-0.38742,-0.39052 -1.20122,-1.14729 -1.97964,-1.49648c-5.01629,-9.27428 -12.33987,-26.16131 -7.04528,-33.07945c8.25007,-10.77423 21.98175,-18.85641 38.41142,-22.0997c1.23274,-0.2431 2.50086,-0.36653 3.76541,-0.36653c4.68179,0 8.9934,1.64043 12.29438,4.31859c3.30068,-2.67816 7.61259,-4.31859 12.29408,-4.31859c1.26455,0 2.53267,0.12343 3.76571,0.36653c16.42997,3.24299 30.16135,11.32547 38.41142,22.0997z"/>
   <path stroke="null" fill="#B0A18D" d="m258.75132,136.82458c-0.03419,-0.35352 -0.08652,-0.60905 -0.1445,-0.76659c-2.01353,-5.50086 -3.78623,-11.69605 -9.11174,-18.07334c-6.66767,-3.96738 -14.43933,-6.94097 -22.935,-8.61811c-1.23274,-0.2431 -2.50116,-0.36653 -3.76571,-0.36653c-4.68149,0 -8.9934,1.64043 -12.29408,4.31859l-5.77092,29.23607c-0.01695,0.01561 -0.0336,0.0318 -0.05025,0.0477c1.6713,-1.58898 3.64797,-2.94757 5.82087,-4.04948c4.01933,-2.03818 8.71985,-3.18287 13.46914,-3.18287c4.27415,0 12.79449,1.03571 20.98926,8.10676c5.59371,4.82532 14.49285,0.58651 13.79293,-6.6522z"/>
   <path stroke="null" fill="#C8BDA5" d="m210.50029,129.51852l0,-16.19993c-3.30098,-2.67816 -7.61259,-4.31859 -12.29438,-4.31859c-1.26455,0 -2.53267,0.12343 -3.76571,0.36653c-16.42997,3.24328 -30.16135,11.32547 -38.41142,22.0997c-1.1367,1.4852 -1.68885,3.43262 -1.80986,5.66302c3.49097,11.12602 14.98731,22.163 14.98731,22.163c0.51974,0.41452 1.03412,0.87788 1.53512,1.38288c0.19089,0.19049 0.3901,0.38763 0.58842,0.57321c4.61638,4.29142 9.94843,6.47038 15.84185,6.47038l0.00208,0c0.29049,0 0.57831,-0.0052 0.86375,-0.01503c0.11774,-0.00405 0.23281,-0.01243 0.34966,-0.01821c0.16621,-0.00809 0.33361,-0.01445 0.49803,-0.02573c0.13707,-0.00925 0.27087,-0.02284 0.40645,-0.03411c0.14094,-0.01156 0.28336,-0.02168 0.42281,-0.03555c0.14034,-0.01416 0.27711,-0.0318 0.41597,-0.04798c0.13142,-0.01503 0.26463,-0.02833 0.39456,-0.04567c0.11596,-0.01503 0.22835,-0.03324 0.34312,-0.04972c0.14896,-0.0211 0.29941,-0.04134 0.4463,-0.06475c0.11001,-0.01734 0.21675,-0.03816 0.32528,-0.05637c0.14748,-0.02544 0.29674,-0.04972 0.44154,-0.07718c0.1225,-0.02284 0.24084,-0.04856 0.36156,-0.07284c0.12726,-0.02573 0.256,-0.05001 0.38088,-0.0766c0.11745,-0.02544 0.23073,-0.05261 0.3458,-0.0792c0.12369,-0.02804 0.24916,-0.0555 0.37018,-0.0847c1.48131,-0.35815 2.55111,-1.60921 2.65963,-3.08979c0.02319,-0.31623 0.04787,-0.62871 0.07463,-0.93743c0,-0.00116 0.0003,-0.00202 0.0003,-0.00318c0.07998,-0.92471 0.17543,-1.81502 0.28782,-2.67354c0.00238,-0.01879 0.00535,-0.037 0.00773,-0.0555c0.03509,-0.26709 0.07166,-0.53188 0.11001,-0.7929c0.00773,-0.05174 0.01635,-0.10204 0.02408,-0.15378c0.07612,-0.50528 0.15699,-1.00073 0.24589,-1.48347c0.00268,-0.01474 0.00565,-0.02891 0.00833,-0.04336c0.04609,-0.25148 0.09396,-0.50008 0.14361,-0.74549c0.00119,-0.0052 0.00208,-0.00983 0.00327,-0.01503c0.05144,-0.25409 0.10496,-0.50528 0.16026,-0.7533c0.01873,-0.08325 0.03865,-0.16448 0.05768,-0.24686c0.03865,-0.16881 0.07701,-0.33791 0.11804,-0.50413c0.01308,-0.05319 0.02706,-0.10493 0.04044,-0.15754c0.04817,-0.19309 0.09663,-0.38561 0.14748,-0.57495c0.01189,-0.04509 0.02498,-0.08874 0.03746,-0.13355c0.05322,-0.19512 0.10674,-0.38966 0.16264,-0.5813c0.01933,-0.06648 0.04014,-0.13095 0.05976,-0.19656c0.05025,-0.16795 0.1005,-0.33589 0.15253,-0.50095c0.01665,-0.05203 0.03419,-0.10262 0.05114,-0.15436c0.05709,-0.1772 0.11447,-0.35352 0.17424,-0.52754c0.00357,-0.01041 0.00743,-0.02023 0.011,-0.03006c0.07374,-0.21362 0.14926,-0.42521 0.22686,-0.6342c0.02498,-0.06677 0.05144,-0.13181 0.07641,-0.1983c0.05739,-0.15089 0.11477,-0.30265 0.17424,-0.45152c0.01754,-0.04394 0.03657,-0.08672 0.05411,-0.13037c0.06898,-0.1691 0.13796,-0.33849 0.20992,-0.50441c0.00268,-0.00607 0.00565,-0.01243 0.00833,-0.01879c0.08771,-0.20234 0.17721,-0.40295 0.26909,-0.60096c0.01546,-0.03382 0.03241,-0.06648 0.04817,-0.1003c0.07968,-0.16939 0.15996,-0.33878 0.24262,-0.50528c0.06601,-0.13268 0.13469,-0.26276 0.20219,-0.39341c0.03419,-0.0662 0.0672,-0.13326 0.10228,-0.19859c0.06868,-0.1295 0.14034,-0.2564 0.21111,-0.38388c0.03627,-0.06504 0.07077,-0.13123 0.10734,-0.19598c0.04847,-0.08556 0.09961,-0.16939 0.14896,-0.25438c0.06095,-0.10435 0.12131,-0.20986 0.18345,-0.31305c0.01873,-0.03093 0.03836,-0.0607 0.05709,-0.09134c0.20932,-0.34167 0.42548,-0.67814 0.65086,-1.00709c0.00238,-0.00347 0.00505,-0.00694 0.00743,-0.01041c0.12042,-0.17575 0.24322,-0.34977 0.3681,-0.52147c0.06333,-0.0873 0.12964,-0.17315 0.19446,-0.25987c0.06541,-0.0873 0.12964,-0.17575 0.19624,-0.26247c0.33242,-0.43215 0.68267,-0.85273 1.04691,-1.26552c0.13023,-0.14771 0.26284,-0.29427 0.39724,-0.43966c0.20189,-0.21853 0.40824,-0.43446 0.61994,-0.64837c0.19594,-0.19772 0.39426,-0.39428 0.59823,-0.58824c0.01665,-0.01561 0.0336,-0.0318 0.05025,-0.0477c3.63786,-3.43724 5.77092,-8.10473 5.77092,-13.03643z"/>
   <g stroke="null"/>
   <g stroke="null"/>
   <g stroke="null"/>
   <g stroke="null"/>
   <g stroke="null"/>
   <g stroke="null"/>
   <g stroke="null"/>
   <g stroke="null"/>
   <g stroke="null"/>
   <g stroke="null"/>
   <g stroke="null"/>
   <g stroke="null"/>
   <g stroke="null"/>
   <g stroke="null"/>
   <g stroke="null"/>
  </g>
  <g stroke="null">
   <g stroke="null" clip-path="url(#svg_4)">
    <path stroke="null" fill="#E0E0E0" d="m60.95715,195.75338c-5.5609,-5.6104 -12.9553,-8.70183 -20.8334,-8.70526c-16.2342,0 -29.44555,13.31546 -29.45205,29.68206c-0.00189,5.2317 1.35395,10.3385 3.93105,14.8401l-4.17831,15.3816l15.61281,-4.1275c4.3017,2.3652 9.145,3.6115 14.0738,3.6135l0.0125,0l0.0002,0c16.2315,0 29.4449,-13.3178 29.4518,-29.6836c0.0027,-7.9321 -3.0582,-15.3901 -8.6184,-21.0009zm-20.8334,45.6711l-0.0096,0c-4.3932,-0.0023 -8.7014,-1.1915 -12.4592,-3.4396l-0.8943,-0.5345l-9.265,2.4491l2.4736,-9.1041l-0.5826,-0.9333c-2.4506,-3.9285 -3.7443,-8.4684 -3.7425,-13.13c0.0054,-13.6034 10.9862,-24.6704 24.4888,-24.6704c6.5388,0.0028 12.6844,2.5724 17.3064,7.2356c4.6218,4.6631 7.1652,10.8621 7.1632,17.4549c-0.0057,13.6038 -10.9868,24.6723 -24.4788,24.6723z"/>
    <path stroke="null" fill="url(#svg_5)" d="m11.77502,245.24508l3.98743,-14.6789c-2.45999,-4.296 -3.75364,-9.1699 -3.75209,-14.1616c0.00645,-15.6187 12.61439,-28.32557 28.10569,-28.32557c7.5187,0.00342 14.5754,2.95348 19.8811,8.30777c5.3068,5.3542 8.2276,12.4711 8.2245,20.0399c-0.0064,15.6191 -12.6152,28.3271 -28.1045,28.3271c-0.0011,0 0.0008,0 0,0l-0.0125,0c-4.7036,-0.0016 -9.3254,-1.192 -13.4302,-3.4475l-14.89943,3.9388z"/>
    <path stroke="null" fill="white" d="m32.84435,204.12868c-0.5449,-1.2214 -1.1186,-1.2458 -1.6369,-1.2672c-0.4241,-0.0183 -0.9095,-0.0172 -1.3941,-0.0172c-0.485,0 -1.2732,0.1838 -1.9397,0.9177c-0.6669,0.7339 -2.5464,2.508 -2.5464,6.1163c0,3.6087 2.607,7.0956 2.9704,7.5853c0.3638,0.489 5.0325,8.1305 12.4264,11.0702c6.1451,2.4431 7.3955,1.9571 8.7294,1.8349c1.3338,-0.1223 4.3038,-1.7738 4.91,-3.4865c0.6063,-1.7123 0.6063,-3.18 0.4244,-3.4868c-0.1818,-0.3056 -0.6669,-0.489 -1.3944,-0.8558c-0.7275,-0.3667 -4.3038,-2.1413 -4.9707,-2.3858c-0.6669,-0.2445 -1.152,-0.3667 -1.637,0.3676c-0.485,0.7335 -1.8783,2.385 -2.3027,2.874c-0.4244,0.4901 -0.8488,0.5513 -1.5763,0.1845c-0.7276,-0.3679 -3.0705,-1.1415 -5.8499,-3.64c-2.1625,-1.9438 -3.6225,-4.3445 -4.0469,-5.0788c-0.4244,-0.7335 -0.0455,-1.1308 0.3194,-1.4964c0.3266,-0.3286 0.7276,-0.8562 1.0913,-1.2844c0.363,-0.4283 0.4843,-0.7339 0.7268,-1.2229c0.2425,-0.4898 0.1212,-0.9181 -0.0606,-1.2848c-0.1819,-0.3668 -1.5957,-3.9937 -2.2425,-5.4439z" clip-rule="evenodd" fill-rule="evenodd"/>
    <path stroke="null" fill="white" d="m60.71555,195.65908c-5.497,-5.54599 -12.8065,-8.60187 -20.5941,-8.60534c-16.0479,0 -29.10753,13.16264 -29.11399,29.34134c-0.00189,5.1716 1.33838,10.2198 3.88589,14.6698l-4.13029,15.2049l15.43359,-4.0802c4.2523,2.3381 9.0401,3.5702 13.9123,3.5721l0.0123,0l0.0002,0c16.0452,0 29.1067,-13.1649 29.1136,-29.3429c0.0026,-7.8409 -3.0231,-15.2133 -8.5195,-20.7597zm-20.5941,45.1469l-0.0095,0c-4.3428,-0.0023 -8.6016,-1.1779 -12.3162,-3.4001l-0.8841,-0.5284l-9.1586,2.421l2.4452,-8.9996l-0.5759,-0.9226c-2.4225,-3.8834 -3.7013,-8.3712 -3.6995,-12.9792c0.0053,-13.4473 10.86,-24.38719 24.2077,-24.38719c6.4637,0.00269 12.5386,2.54279 17.1077,7.15249c4.5687,4.6096 7.0829,10.7374 7.081,17.2546c-0.0057,13.4475 -10.8608,24.389 -24.1978,24.389z"/>
   </g>
   <defs stroke="null" transform="translate(-50 2) translate(-49 -6) translate(6 -48) translate(-107 0) translate(15 -79) translate(3 -129) translate(-92 -53) translate(44 35) translate(31 120) translate(-253 22) translate(363.432 0) translate(0 265.056) translate(148.424 412.048) scale(1.37193 1.38395) translate(-148.424 -412.048) translate(108.187 297.734) scale(0.852128 0.782881) translate(-108.187 -297.734) translate(126.961 380.305) scale(1 1.53926) translate(-126.961 -380.305) translate(126.961 247.07) scale(1.60861 1.45072) translate(-126.961 -247.07) translate(78.9257 206.227) scale(1 3.8077) translate(-78.9257 -206.227) translate(78.9257 18.2414) scale(6.20225 1) translate(-78.9257 -18.2414) translate(16.4977 48.5265) scale(1.23668 1.16693) translate(-16.4977 -48.5265)">
    <clipPath stroke="null" id="svg_4">
     <rect stroke="null" x="-81.57898" y="134.04812" fill="white" height="59.9037" width="59.1549"/>
    </clipPath>
    <linearGradient stroke="null" gradientTransform="matrix(1,0,0,1,113.02743530273438,28.05780029296875)" gradientUnits="userSpaceOnUse" y2="65.8947" x2="35.9726" y1="5.99036" x1="35.9726" id="svg_9">
     <stop stroke="null" stop-color="#00B2FF"/>
     <stop stroke="null" stop-color="#006AFF" offset="1"/>
    </linearGradient>
    <linearGradient stroke="null" gradientTransform="matrix(1,0,0,1,225.94155883789062,25.173858642578125)" gradientUnits="userSpaceOnUse" y2="65.6619" x2="36.0584" y1="5.99036" x1="36.0584" id="svg_13">
     <stop stroke="null" stop-color="#36AEE2"/>
     <stop stroke="null" stop-color="#1E96C8" offset="1"/>
    </linearGradient>
    <linearGradient stroke="null" gradientTransform="matrix(1,0,0,1,225.94155883789062,25.173858642578125)" gradientUnits="userSpaceOnUse" y2="34.0581" x2="36.6973" y1="30.6949" x1="34.8765" id="svg_12">
     <stop stroke="null" stop-color="#C1D5E7"/>
     <stop stroke="null" stop-color="#C8DAEA" offset="1"/>
    </linearGradient>
    <linearGradient stroke="null" gradientTransform="matrix(1,0,0,1,225.94155883789062,25.173858642578125)" gradientUnits="userSpaceOnUse" y2="45.2981" x2="18.4576" y1="24.1769" x1="48.372" id="svg_11">
     <stop stroke="null" stop-color="#F8FCFE"/>
     <stop stroke="null" stop-color="#E3F1F9" offset="1"/>
    </linearGradient>
    <linearGradient gradientTransform="matrix(1.0338116884231567,0,0,1.0333868265151978,13.195831298828125,189.8895263671875)" gradientUnits="userSpaceOnUse" y2="6.02292" x2="36.5661" y1="63.1889" x1="36.5661" id="svg_17">
     <stop stop-color="#20B038"/>
     <stop stop-color="#60D66A" offset="1"/>
    </linearGradient>
    <radialGradient gradientTransform="matrix(1.7496047019958496,0,0,1.666314721107483,42.5103759765625,100.00927734375)" gradientUnits="userSpaceOnUse" r="44.899" cy="42.035" cx="19.38" id="svg_19">
     <stop stop-color="#fd5" offset="0"/>
     <stop stop-color="#ff543f" offset="0.328"/>
     <stop stop-color="#fc5245" offset="0.348"/>
     <stop stop-color="#e64771" offset="0.504"/>
     <stop stop-color="#d53e91" offset="0.643"/>
     <stop stop-color="#cc39a4" offset="0.761"/>
     <stop stop-color="#c837ab" offset="0.841"/>
    </radialGradient>
    <radialGradient gradientUnits="userSpaceOnUse" gradientTransform="matrix(1.7496047019958496,0,0,1.1102654933929443,42.5103759765625,103.09027099609375)" r="29.813" cy="5.54" cx="11.786" id="svg_18">
     <stop stop-color="#4168c9" offset="0"/>
     <stop stop-opacity="0" stop-color="#4168c9" offset="0.999"/>
    </radialGradient>
   </defs>
  </g>
  <g>
   <g clip-path="url(#svg_8)">
    <path fill="url(#svg_9)" d="m149.00004,34.04816c-16.8915,0 -29.98237,12.36054 -29.98237,29.05444c0,8.7323 3.58334,16.2777 9.41697,21.4907c0.4888,0.44 0.7842,1.0487 0.8084,1.7056l0.1629,5.3274c0.0543,1.6995 1.8098,2.8024 3.3663,2.1214l5.9482,-2.6215c0.5032,-0.2227 1.0677,-0.2652 1.5986,-0.1205c2.7328,0.7533 5.6466,1.151 8.681,1.151c16.8914,0 29.9823,-12.3606 29.9823,-29.0543c0,-16.6937 -13.0909,-29.05424 -29.9823,-29.05424z" clip-rule="evenodd" fill-rule="evenodd"/>
    <path fill="white" d="m130.99884,71.5999l8.8076,-13.9575c1.3996,-2.2178 4.4039,-2.7724 6.5032,-1.1993l7.0039,5.2491c0.3129,0.2339 0.6933,0.3597 1.0839,0.3586c0.3906,-0.0011 0.7703,-0.129 1.0819,-0.3646l9.4593,-7.1718c1.2607,-0.958 2.9138,0.5547 2.063,1.8925l-8.8016,13.9515c-1.3996,2.2178 -4.4038,2.7724 -6.5031,1.1993l-7.0039,-5.2491c-0.3129,-0.2338 -0.6933,-0.3597 -1.0839,-0.3586c-0.3906,0.0011 -0.7703,0.129 -1.0819,0.3646l-9.4653,7.1777c-1.2607,0.9583 -2.9138,-0.5545 -2.0631,-1.8924z" clip-rule="evenodd" fill-rule="evenodd"/>
   </g>
   <defs transform="translate(-50 2) translate(-49 -6) translate(6 -48) translate(-107 0) translate(15 -79) translate(3 -129) translate(-28 24) translate(10 1) translate(38 136) translate(-89 -137) translate(364.027 0) translate(0 264.058)">
    <clipPath id="svg_8">
     <rect x="119.01767" y="34.04816" fill="white" height="59.9037" width="59.9037"/>
    </clipPath>
   </defs>
  </g>
  <g>
   <g clip-path="url(#svg_10)">
    <path fill="url(#svg_13)" d="m261.99996,90.83576c16.4778,0 29.8358,-13.358 29.8358,-29.8358c0,-16.4778 -13.358,-29.83574 -29.8358,-29.83574c-16.4778,0 -29.83574,13.35794 -29.83574,29.83574c0,16.4778 13.35794,29.8358 29.83574,29.8358z"/>
    <path fill="url(#svg_12)" d="m253.06066,62.97356l2.9833,8.5235c0.0423,0.121 0.1748,0.1848 0.2958,0.1424c0.0756,-0.0264 0.1322,-0.0899 0.1498,-0.168l1.447,-6.4083l13.9311,-13.4667l-17.1817,8.5908l-1.6253,2.7863z" clip-rule="evenodd" fill-rule="evenodd"/>
    <path fill="#A9C9DD" d="m256.79996,71.69276l6.9413,-4.7721l-2.3219,-3.4828l-3.4827,1.3931l-1.4947,6.6194c-0.0283,0.125 0.0502,0.2493 0.1753,0.2776c0.0632,0.0142 0.1294,0.0015 0.1827,-0.0352z" clip-rule="evenodd" fill-rule="evenodd"/>
    <g filter="url(#svg_14)">
     <path fill="#B8CEE1" d="m253.52506,64.13456l15.7886,-10.9127l-3.0184,-0.4644l-12.7702,9.0552l0,2.3219z" clip-rule="evenodd" fill-rule="evenodd"/>
    </g>
    <path fill="url(#svg_11)" d="m247.72066,58.93726l25.3373,-9.5268c0.4801,-0.1806 1.0156,0.0623 1.1962,0.5424c0.0629,0.1673 0.0762,0.3492 0.0383,0.5238l-4.674,21.5407c-0.1087,0.5012 -0.6032,0.8194 -1.1045,0.7107c-0.1286,-0.0279 -0.2498,-0.0828 -0.3555,-0.1611l-10.0104,-7.4077c-0.2062,-0.1526 -0.2496,-0.4433 -0.0971,-0.6495c0.0158,-0.0214 0.0334,-0.0413 0.0527,-0.0597l10.7449,-10.2565c0.1855,-0.1771 0.1924,-0.4711 0.0153,-0.6566c-0.1573,-0.1648 -0.411,-0.1911 -0.5988,-0.0621l-14.2909,9.8142c-0.1345,0.0924 -0.3076,0.1074 -0.456,0.0396l-5.8568,-2.6774c-0.4665,-0.2133 -0.6718,-0.7643 -0.4585,-1.2308c0.102,-0.2232 0.2882,-0.3969 0.5178,-0.4832z" clip-rule="evenodd" fill-rule="evenodd"/>
   </g>
   <defs transform="translate(-50 2) translate(-49 -6) translate(6 -48) translate(-107 0) translate(15 -79) translate(3 -129) translate(-24 9) translate(15 13) translate(31 135) translate(22 -136) translate(363.942 0) translate(0 264.174)">
    <filter color-interpolation-filters="sRGB" filterUnits="userSpaceOnUse" height="18.1739" width="22.5854" y="24.1852" x="24.1851" id="svg_14">
     <feGaussianBlur result="effect1_foregroundBlur" stdDeviation="1.69922"/>
    </filter>
    <clipPath id="svg_10">
     <rect x="231.93204" y="31.16422" fill="white" height="59.9037" width="59.9037"/>
    </clipPath>
   </defs>
  </g>
  <g stroke="null">
   <rect stroke="null" x="302" y="87" fill-opacity="0.01" fill="white" height="69" width="64"/>
   <rect stroke="black" stroke-width="4" fill="#2F88FF" rx="2" height="34.5" width="40" y="112.875" x="314"/>
   <circle stroke="null" fill="white" r="2.66667" cy="124.375" cx="324.66667"/>
   <circle stroke="null" fill="white" r="2.66667" cy="124.375" cx="343.33333"/>
   <path stroke="null" fill="white" d="m328.66667,133c-1.4728,0 -2.66667,1.28714 -2.66667,2.875c0,1.58786 1.19387,2.875 2.66667,2.875l0,-5.75zm10.66667,5.75c1.4728,0 2.66667,-1.28714 2.66667,-2.875c0,-1.58786 -1.19387,-2.875 -2.66667,-2.875l0,5.75zm-10.66667,0l10.66667,0l0,-5.75l-10.66667,0l0,5.75z"/>
   <path stroke="black" stroke-linejoin="round" stroke-linecap="round" stroke-width="4" d="m334,101.375l0,11.5"/>
   <path stroke="black" stroke-linejoin="round" stroke-linecap="round" stroke-width="4" d="m307.33333,124.375l0,11.5"/>
   <path stroke="black" stroke-linejoin="round" stroke-linecap="round" stroke-width="4" d="m360.66667,124.375l0,11.5"/>
   <circle stroke="black" stroke-width="4" r="2.66667" cy="98.5" cx="334"/>
  </g>
  <g stroke="null">
   <path stroke="null" fill="#4AD0FF" d="m370.73913,246.37799l-18.75838,0c-1.60525,0 -2.60912,-1.85953 -1.80725,-3.34205l6.7815,-12.54001c0.54075,-0.99969 1.70688,-1.39311 2.68725,-0.90628c1.08213,0.53728 2.35213,0.53768 3.4355,0c0.98075,-0.48697 2.14662,-0.09328 2.68713,0.90641l6.78137,12.54001c0.803,1.48426 -0.20362,3.34192 -1.80712,3.34192z"/>
   <path stroke="null" fill="#16A5D9" d="m372.54638,243.03594l-6.78138,-12.54001c-0.54062,-0.99969 -1.70662,-1.39311 -2.68713,-0.90641c-0.54162,0.26891 -1.12987,0.40316 -1.71787,0.40316l0,16.38531l9.379,0c1.60362,0 2.61025,-1.85766 1.80737,-3.34205z"/>
   <path stroke="null" fill="#99E5FF" d="m361.35987,234.44826c-4.592,0 -8.27575,-3.99477 -8.27575,-8.83536c0,-4.87195 3.7125,-8.83536 8.27575,-8.83536s8.27575,3.96354 8.27575,8.83536c0,4.83499 -3.6785,8.83536 -8.27575,8.83536z"/>
   <path stroke="null" fill="#4AD0FF" d="m369.63563,225.6129c0,-4.87195 -3.71237,-8.83536 -8.27575,-8.83536l0,17.67086c4.59725,-0.00013 8.27575,-4.00051 8.27575,-8.83549z"/>
   <path stroke="null" fill="#FBB071" d="m343.19275,224.35605l-5.422,-10.02629l-18.50988,0c-3.45225,-0.00013 -6.26087,-2.99868 -6.26087,-6.68437l0,-16.33913c0,-3.68569 2.80863,-6.68424 6.26087,-6.68424l51.47825,0c3.45225,0 6.26087,2.99855 6.26087,6.68424l0,16.33927c0,3.68569 -2.80863,6.68424 -6.26087,6.68424l-18.50975,0l-5.422,10.02629c-0.803,1.48466 -2.81313,1.48199 -3.61463,0z"/>
   <path stroke="null" fill="#FF835D" d="m370.73913,184.62201l-25.73913,0l0,40.84663c0.70287,0.00013 1.40588,-0.37033 1.80725,-1.11259l5.422,-10.02629l18.50975,0c3.45225,0 6.26087,-2.99855 6.26087,-6.68424l0,-16.33927c0.00013,-3.68569 -2.8085,-6.68424 -6.26075,-6.68424z"/>
   <g stroke="null">
    <path stroke="null" fill="#FAE8AC" d="m365.55275,197.82207l-41.1055,0c-1.1525,0 -2.087,-0.99756 -2.087,-2.22812s0.93438,-2.22812 2.087,-2.22812l41.10538,0c1.1525,0 2.087,0.99756 2.087,2.22812s-0.93425,2.22812 -2.08687,2.22812z"/>
    <path stroke="null" fill="#FAE8AC" d="m365.55275,205.58554l-41.1055,0c-1.1525,0 -2.087,-0.99756 -2.087,-2.22812c0,-1.23043 0.93438,-2.22812 2.087,-2.22812l41.10538,0c1.1525,0 2.087,0.99756 2.087,2.22812c0,1.23043 -0.93425,2.22812 -2.08687,2.22812z"/>
   </g>
   <g stroke="null">
    <path stroke="null" fill="#F6D86E" d="m365.55275,193.36596l-20.55275,0l0,4.45612l20.55275,0c1.1525,0 2.087,-0.99756 2.087,-2.22812s-0.93438,-2.22799 -2.087,-2.22799z"/>
    <path stroke="null" fill="#F6D86E" d="m365.55275,201.12929l-20.55275,0l0,4.45612l20.55275,0c1.1525,0 2.087,-0.99756 2.087,-2.22812c0,-1.2303 -0.93438,-2.22799 -2.087,-2.22799z"/>
   </g>
   <g stroke="null"/>
   <g stroke="null"/>
   <g stroke="null"/>
   <g stroke="null"/>
   <g stroke="null"/>
   <g stroke="null"/>
   <g stroke="null"/>
   <g stroke="null"/>
   <g stroke="null"/>
   <g stroke="null"/>
   <g stroke="null"/>
   <g stroke="null"/>
   <g stroke="null"/>
   <g stroke="null"/>
   <g stroke="null"/>
  </g>
  <g stroke="null">
   <g stroke="null" clip-path="url(#svg_16)">
    <path stroke="null" fill="#E0E0E0" d="m70.95715,203.75338c-5.5609,-5.6104 -12.9553,-8.70183 -20.8334,-8.70526c-16.2342,0 -29.44555,13.31546 -29.45205,29.68206c-0.00189,5.2317 1.35395,10.3385 3.93105,14.8401l-4.17831,15.3816l15.61281,-4.1275c4.3017,2.3652 9.145,3.6115 14.0738,3.6135l0.0125,0l0.0002,0c16.2315,0 29.4449,-13.3178 29.4518,-29.6836c0.0027,-7.9321 -3.0582,-15.3901 -8.6184,-21.0009zm-20.8334,45.6711l-0.0096,0c-4.3932,-0.0023 -8.7014,-1.1915 -12.4592,-3.4396l-0.8943,-0.5345l-9.265,2.4491l2.4736,-9.1041l-0.5826,-0.9333c-2.4506,-3.9285 -3.7443,-8.4684 -3.7425,-13.13c0.0054,-13.6034 10.9862,-24.6704 24.4888,-24.6704c6.5388,0.0028 12.6844,2.5724 17.3064,7.2356c4.6218,4.6631 7.1652,10.8621 7.1632,17.4549c-0.0057,13.6038 -10.9868,24.6723 -24.4788,24.6723z"/>
    <path stroke="null" fill="url(#svg_17)" d="m21.77502,253.24508l3.98743,-14.6789c-2.45999,-4.296 -3.75364,-9.1699 -3.75209,-14.1616c0.00645,-15.6187 12.61439,-28.32557 28.10569,-28.32557c7.5187,0.00342 14.5754,2.95348 19.8811,8.30777c5.3068,5.3542 8.2276,12.4711 8.2245,20.0399c-0.0064,15.6191 -12.6152,28.3271 -28.1045,28.3271c-0.0011,0 0.0008,0 0,0l-0.0125,0c-4.7036,-0.0016 -9.3254,-1.192 -13.4302,-3.4475l-14.89943,3.9388z"/>
    <path stroke="null" fill="white" d="m42.84435,212.12868c-0.5449,-1.2214 -1.1186,-1.2458 -1.6369,-1.2672c-0.4241,-0.0183 -0.9095,-0.0172 -1.3941,-0.0172c-0.485,0 -1.2732,0.1838 -1.9397,0.9177c-0.6669,0.7339 -2.5464,2.508 -2.5464,6.1163c0,3.6087 2.607,7.0956 2.9704,7.5853c0.3638,0.489 5.0325,8.1305 12.4264,11.0702c6.1451,2.4431 7.3955,1.9571 8.7294,1.8349c1.3338,-0.1223 4.3038,-1.7738 4.91,-3.4865c0.6063,-1.7123 0.6063,-3.18 0.4244,-3.4868c-0.1818,-0.3056 -0.6669,-0.489 -1.3944,-0.8558c-0.7275,-0.3667 -4.3038,-2.1413 -4.9707,-2.3858c-0.6669,-0.2445 -1.152,-0.3667 -1.637,0.3676c-0.485,0.7335 -1.8783,2.385 -2.3027,2.874c-0.4244,0.4901 -0.8488,0.5513 -1.5763,0.1845c-0.7276,-0.3679 -3.0705,-1.1415 -5.8499,-3.64c-2.1625,-1.9438 -3.6225,-4.3445 -4.0469,-5.0788c-0.4244,-0.7335 -0.0455,-1.1308 0.3194,-1.4964c0.3266,-0.3286 0.7276,-0.8562 1.0913,-1.2844c0.363,-0.4283 0.4843,-0.7339 0.7268,-1.2229c0.2425,-0.4898 0.1212,-0.9181 -0.0606,-1.2848c-0.1819,-0.3668 -1.5957,-3.9937 -2.2425,-5.4439z" clip-rule="evenodd" fill-rule="evenodd"/>
    <path stroke="null" fill="white" d="m70.71555,203.65908c-5.497,-5.54599 -12.8065,-8.60187 -20.5941,-8.60534c-16.0479,0 -29.10753,13.16264 -29.11399,29.34134c-0.00189,5.1716 1.33838,10.2198 3.88589,14.6698l-4.13029,15.2049l15.43359,-4.0802c4.2523,2.3381 9.0401,3.5702 13.9123,3.5721l0.0123,0l0.0002,0c16.0452,0 29.1067,-13.1649 29.1136,-29.3429c0.0026,-7.8409 -3.0231,-15.2133 -8.5195,-20.7597zm-20.5941,45.1469l-0.0095,0c-4.3428,-0.0023 -8.6016,-1.1779 -12.3162,-3.4001l-0.8841,-0.5284l-9.1586,2.421l2.4452,-8.9996l-0.5759,-0.9226c-2.4225,-3.8834 -3.7013,-8.3712 -3.6995,-12.9792c0.0053,-13.4473 10.86,-24.38719 24.2077,-24.38719c6.4637,0.00269 12.5386,2.54279 17.1077,7.15249c4.5687,4.6096 7.0829,10.7374 7.081,17.2546c-0.0057,13.4475 -10.8608,24.389 -24.1978,24.389z"/>
   </g>
   <defs stroke="null" transform="translate(-50 2) translate(-49 -6) translate(6 -48) translate(-107 0) translate(15 -79) translate(3 -129) translate(-168 185) translate(363.432 0) translate(0 265.056) translate(202.424 455.048) scale(1.03381 1.03339) translate(-202.424 -455.048)">
    <clipPath stroke="null" id="svg_16">
     <rect stroke="null" x="20.42102" y="195.04812" fill="white" height="59.9037" width="59.1549"/>
    </clipPath>
   </defs>
  </g>
  <g stroke="null">
   <path stroke="null" d="m102.02667,169.97782l-34.99209,0.03166c-7.69826,0.00667 -14.00209,-5.9854 -14.01083,-13.31719l-0.03324,-33.32629c-0.007,-7.33178 6.28458,-13.33552 13.98284,-13.34385l34.99209,-0.03166c7.69826,-0.00667 14.00209,5.9854 14.01083,13.31719l0.03324,33.32629c0.00875,7.33345 -6.28458,13.33718 -13.98284,13.34385z" fill="url(#svg_19)"/>
   <path stroke="null" d="m102.02667,169.97782l-34.99209,0.03166c-7.69826,0.00667 -14.00209,-5.9854 -14.01083,-13.31719l-0.03324,-33.32629c-0.007,-7.33178 6.28458,-13.33552 13.98284,-13.34385l34.99209,-0.03166c7.69826,-0.00667 14.00209,5.9854 14.01083,13.31719l0.03324,33.32629c0.00875,7.33345 -6.28458,13.33718 -13.98284,13.34385z" fill="url(#svg_18)"/>
   <path stroke="null" d="m84.50088,151.66503c-6.75172,0 -12.24723,-5.23223 -12.24723,-11.6642s5.49551,-11.6642 12.24723,-11.6642s12.24723,5.23223 12.24723,11.6642s-5.49551,11.6642 -12.24723,11.6642zm0,-19.99578c-4.82366,0 -8.74802,3.73754 -8.74802,8.33157s3.92436,8.33157 8.74802,8.33157s8.74802,-3.73754 8.74802,-8.33157s-3.92436,-8.33157 -8.74802,-8.33157z" fill="#fff"/>
   <circle stroke="null" fill="#fff" r="2.49947" cy="127.50346" cx="97.62291"/>
   <path stroke="null" d="m94.9985,161.66291l-20.99526,0c-6.75172,0 -12.24723,-5.23223 -12.24723,-11.6642l0,-19.99578c0,-6.43197 5.49551,-11.6642 12.24723,-11.6642l20.99526,0c6.75172,0 12.24723,5.23223 12.24723,11.6642l0,19.99578c0,6.43197 -5.49551,11.6642 -12.24723,11.6642zm-20.99526,-39.99155c-4.82366,0 -8.74802,3.73754 -8.74802,8.33157l0,19.99578c0,4.59403 3.92436,8.33157 8.74802,8.33157l20.99526,0c4.82366,0 8.74802,-3.73754 8.74802,-8.33157l0,-19.99578c0,-4.59403 -3.92436,-8.33157 -8.74802,-8.33157l-20.99526,0z" fill="#fff"/>
  </g>
  <path id="svg_21" d="m-329,290l237,-127l10,-31l-45,-8" opacity="NaN" stroke="#000" fill="#def2f9"/>
 </g>
 <defs>
  <linearGradient gradientTransform="matrix(14.424295425415039,0,0,10.75033187866211,-182.43307495117188,-204.34893798828125)" gradientUnits="userSpaceOnUse" y2="6.02292" x2="36.5661" y1="63.1889" x1="36.5661" id="svg_5">
   <stop stop-color="#20B038"/>
   <stop stop-color="#60D66A" offset="1"/>
  </linearGradient>
 </defs>
</svg>