<?xml version="1.0" ?><svg id="icon" viewBox="0 0 512 512" xmlns="http://www.w3.org/2000/svg"><defs><style>.cls-1{fill:#35454b;stroke-linejoin:round;}.cls-1,.cls-3,.cls-4{stroke:#526b77;}.cls-1,.cls-3{stroke-width:10px;}.cls-2{fill:#daa748;}.cls-3{fill:none;}.cls-3,.cls-4{stroke-miterlimit:10;}.cls-4{fill:#f7e6b2;stroke-width:5px;}.cls-5{fill:#e2e155;}.cls-6{fill:#526b77;}</style></defs><title/><polygon class="cls-1" points="416 408.52 348.69 371.68 339.41 447.85 248.04 269.93 324.63 230.6 416 408.52"/><polygon class="cls-1" points="96 408.52 163.31 371.68 172.59 447.85 263.96 269.93 187.37 230.6 96 408.52"/><path class="cls-2" d="M394.92,189.07c0,13.88-22.28,24.06-26.34,36.58-4.21,13,7.67,34.28-.19,45.08s-31.93,6.15-42.84,14.09-13.64,32.19-26.62,36.4c-12.52,4.07-29.06-13.82-42.94-13.82s-30.42,17.88-42.94,13.82c-13-4.21-15.82-28.54-26.62-36.4s-34.9-3.18-42.84-14.09,4-32.11-.19-45.08c-4.07-12.52-26.34-22.71-26.34-36.58s22.28-24.06,26.34-36.58c4.21-13-7.67-34.28.19-45.08s31.93-6.15,42.84-14.09,13.64-32.19,26.62-36.4c12.52-4.07,29.06,13.82,42.94,13.82s30.42-17.88,42.94-13.82c13,4.21,15.82,28.54,26.62,36.4s34.9,3.18,42.84,14.09-4,32.11.19,45.08C372.65,165,394.92,175.19,394.92,189.07Z"/><path class="cls-3" d="M394.92,189.07c0,13.88-22.28,24.06-26.34,36.58-4.21,13,7.67,34.28-.19,45.08s-31.93,6.15-42.84,14.09-13.64,32.19-26.62,36.4c-12.52,4.07-29.06-13.82-42.94-13.82s-30.42,17.88-42.94,13.82c-13-4.21-15.82-28.54-26.62-36.4s-34.9-3.18-42.84-14.09,4-32.11-.19-45.08c-4.07-12.52-26.34-22.71-26.34-36.58s22.28-24.06,26.34-36.58c4.21-13-7.67-34.28.19-45.08s31.93-6.15,42.84-14.09,13.64-32.19,26.62-36.4c12.52-4.07,29.06,13.82,42.94,13.82s30.42-17.88,42.94-13.82c13,4.21,15.82,28.54,26.62,36.4s34.9,3.18,42.84,14.09-4,32.11.19,45.08C372.65,165,394.92,175.19,394.92,189.07Z"/><circle class="cls-4" cx="256" cy="189.07" r="87.64"/><path class="cls-5" d="M228.35,234.11a2.5,2.5,0,0,1-2.38-3.27l10-30.77L209.8,181a2.5,2.5,0,0,1,1.47-4.52h32.35l10-30.77a2.5,2.5,0,0,1,4.76,0l10,30.77h32.35A2.5,2.5,0,0,1,302.2,181l-26.18,19,10,30.77a2.5,2.5,0,0,1-3.85,2.79l-26.17-19-26.18,19A2.5,2.5,0,0,1,228.35,234.11Z"/><path class="cls-6" d="M256,146.52,266.56,179h34.17l-27.64,20.09,10.56,32.5L256,211.52l-27.64,20.09,10.56-32.5L211.27,179h34.17L256,146.52M300.73,179h0M256,141.52a5,5,0,0,0-4.76,3.45l-9.44,29H211.27a5,5,0,0,0-2.94,9L233,201l-9.44,29a5,5,0,0,0,7.69,5.59L256,217.7l24.71,17.95a5,5,0,0,0,7.69-5.59L279,201l24.63-17.89a5,5,0,0,0-2.86-9.1H270.19l-9.44-29a5,5,0,0,0-4.76-3.45Z"/></svg>