<svg id="visual" viewBox="0 0 900 600" width="900" height="600" xmlns="http://www.w3.org/2000/svg" xmlns:xlink="http://www.w3.org/1999/xlink" version="1.1"><rect x="0" y="0" width="900" height="600" fill="#fff"></rect><defs><linearGradient id="grad1_0" x1="33.3%" y1="0%" x2="100%" y2="100%"><stop offset="20%" stop-color="#02eea8" stop-opacity="1"></stop><stop offset="80%" stop-color="#02eea8" stop-opacity="1"></stop></linearGradient></defs><defs><linearGradient id="grad1_1" x1="33.3%" y1="0%" x2="100%" y2="100%"><stop offset="20%" stop-color="#02eea8" stop-opacity="1"></stop><stop offset="80%" stop-color="#aaf8d3" stop-opacity="1"></stop></linearGradient></defs><defs><linearGradient id="grad1_2" x1="33.3%" y1="0%" x2="100%" y2="100%"><stop offset="20%" stop-color="#ffffff" stop-opacity="1"></stop><stop offset="80%" stop-color="#aaf8d3" stop-opacity="1"></stop></linearGradient></defs><defs><linearGradient id="grad2_0" x1="0%" y1="0%" x2="66.7%" y2="100%"><stop offset="20%" stop-color="#02eea8" stop-opacity="1"></stop><stop offset="80%" stop-color="#02eea8" stop-opacity="1"></stop></linearGradient></defs><defs><linearGradient id="grad2_1" x1="0%" y1="0%" x2="66.7%" y2="100%"><stop offset="20%" stop-color="#aaf8d3" stop-opacity="1"></stop><stop offset="80%" stop-color="#02eea8" stop-opacity="1"></stop></linearGradient></defs><defs><linearGradient id="grad2_2" x1="0%" y1="0%" x2="66.7%" y2="100%"><stop offset="20%" stop-color="#aaf8d3" stop-opacity="1"></stop><stop offset="80%" stop-color="#ffffff" stop-opacity="1"></stop></linearGradient></defs><g transform="translate(900, 0)"><path d="M0 486.7C-52.2 451.8 -104.5 416.8 -164.9 398.2C-225.4 379.6 -294.1 377.2 -344.2 344.2C-394.2 311.1 -425.6 247.3 -446.2 184.8C-466.9 122.3 -476.8 61.2 -486.7 0L0 0Z" fill="#d6fce9"></path><path d="M0 324.5C-34.8 301.2 -69.6 277.9 -110 265.5C-150.3 253 -196.1 251.5 -229.5 229.5C-262.8 207.4 -283.7 164.9 -297.5 123.2C-311.3 81.6 -317.9 40.8 -324.5 0L0 0Z" fill="#75f4bd"></path><path d="M0 162.2C-17.4 150.6 -34.8 138.9 -55 132.7C-75.1 126.5 -98 125.7 -114.7 114.7C-131.4 103.7 -141.9 82.4 -148.7 61.6C-155.6 40.8 -158.9 20.4 -162.2 0L0 0Z" fill="#02eea8"></path></g><g transform="translate(0, 600)"><path d="M0 -486.7C48 -444.7 96 -402.6 160 -386.2C224 -369.7 304 -378.8 344.2 -344.2C384.4 -309.5 384.8 -231.1 401.9 -166.5C419 -101.8 452.9 -50.9 486.7 0L0 0Z" fill="#d6fce9"></path><path d="M0 -324.5C32 -296.5 64 -268.4 106.6 -257.5C149.3 -246.5 202.7 -252.6 229.5 -229.5C256.3 -206.4 256.5 -154.1 267.9 -111C279.3 -67.9 301.9 -33.9 324.5 0L0 0Z" fill="#75f4bd"></path><path d="M0 -162.2C16 -148.2 32 -134.2 53.3 -128.7C74.7 -123.2 101.3 -126.3 114.7 -114.7C128.1 -103.2 128.3 -77 134 -55.5C139.7 -33.9 151 -17 162.2 0L0 0Z" fill="#02eea8"></path></g></svg>