<svg id="visual" viewBox="0 0 960 540" width="960" height="540" xmlns="http://www.w3.org/2000/svg" xmlns:xlink="http://www.w3.org/1999/xlink" version="1.1"><rect x="0" y="0" width="960" height="540" fill="#fff"></rect><defs><linearGradient id="grad1_0" x1="45.8%" y1="100%" x2="100%" y2="0%"><stop offset="14.444444444444446%" stop-color="#ffffff" stop-opacity="1"></stop><stop offset="85.55555555555554%" stop-color="#ffffff" stop-opacity="1"></stop></linearGradient></defs><defs><linearGradient id="grad2_0" x1="0%" y1="100%" x2="56.3%" y2="0%"><stop offset="14.444444444444446%" stop-color="#ffffff" stop-opacity="1"></stop><stop offset="85.55555555555554%" stop-color="#ffffff" stop-opacity="1"></stop></linearGradient></defs><g transform="translate(960, 540)"><path d="M-324 0C-321.7 -34.5 -319.5 -69.1 -308.1 -100.1C-296.8 -131.2 -276.4 -158.8 -255.6 -185.7C-234.9 -212.7 -213.9 -239 -187.5 -258.1C-161.1 -277.1 -129.2 -288.9 -97 -298.6C-64.9 -308.4 -32.4 -316.2 0 -324L0 0Z" fill="#B2F3E9"></path></g><g transform="translate(0, 0)"><path d="M324 0C321.3 34.2 318.6 68.4 308.1 100.1C297.7 131.8 279.6 160.9 258.9 188.1C238.2 215.2 215 240.4 187.5 258.1C160 275.8 128.1 286 96.1 295.8C64.1 305.5 32.1 314.8 0 324L0 0Z" fill="#B2F3E9"></path></g></svg>