<svg id="visual" viewBox="0 0 960 540" width="960" height="540" xmlns="http://www.w3.org/2000/svg" xmlns:xlink="http://www.w3.org/1999/xlink" version="1.1"><rect x="0" y="0" width="960" height="540" fill="#fff"></rect><defs><linearGradient id="grad1_0" x1="43.8%" y1="100%" x2="100%" y2="0%"><stop offset="14.444444444444446%" stop-color="#33b4f5" stop-opacity="1"></stop><stop offset="85.55555555555554%" stop-color="#33b4f5" stop-opacity="1"></stop></linearGradient></defs><defs><linearGradient id="grad1_1" x1="43.8%" y1="100%" x2="100%" y2="0%"><stop offset="14.444444444444446%" stop-color="#33b4f5" stop-opacity="1"></stop><stop offset="85.55555555555554%" stop-color="#ffffff" stop-opacity="1"></stop></linearGradient></defs><defs><linearGradient id="grad2_0" x1="0%" y1="100%" x2="56.3%" y2="0%"><stop offset="14.444444444444446%" stop-color="#33b4f5" stop-opacity="1"></stop><stop offset="85.55555555555554%" stop-color="#33b4f5" stop-opacity="1"></stop></linearGradient></defs><defs><linearGradient id="grad2_1" x1="0%" y1="100%" x2="56.3%" y2="0%"><stop offset="14.444444444444446%" stop-color="#ffffff" stop-opacity="1"></stop><stop offset="85.55555555555554%" stop-color="#33b4f5" stop-opacity="1"></stop></linearGradient></defs><g transform="translate(960, 540)"><path d="M-351 0C-351 -50.9 -350.9 -101.8 -324.3 -134.3C-297.6 -166.8 -244.4 -180.8 -210 -210C-175.6 -239.2 -160.1 -283.5 -128.2 -309.5C-96.3 -335.5 -48.2 -343.3 0 -351L0 0Z" fill="#aed9fb"></path><path d="M-175.5 0C-175.5 -25.5 -175.5 -50.9 -162.1 -67.2C-148.8 -83.4 -122.2 -90.4 -105 -105C-87.8 -119.6 -80 -141.7 -64.1 -154.7C-48.2 -167.8 -24.1 -171.6 0 -175.5L0 0Z" fill="#33b4f5"></path></g><g transform="translate(0, 0)"><path d="M351 0C325.7 39 300.3 78 282.7 117.1C265.1 156.2 255.1 195.5 232.6 232.6C210.2 269.8 175.2 304.9 134.3 324.3C93.5 343.7 46.7 347.3 0 351L0 0Z" fill="#aed9fb"></path><path d="M175.5 0C162.8 19.5 150.2 39 141.4 58.6C132.5 78.1 127.6 97.7 116.3 116.3C105.1 134.9 87.6 152.5 67.2 162.1C46.7 171.8 23.4 173.7 0 175.5L0 0Z" fill="#33b4f5"></path></g></svg>