<svg id="visual" viewBox="0 0 960 540" width="960" height="540" xmlns="http://www.w3.org/2000/svg" xmlns:xlink="http://www.w3.org/1999/xlink" version="1.1"><rect x="0" y="0" width="960" height="540" fill="#fff"></rect><defs><linearGradient id="grad1_0" x1="43.8%" y1="100%" x2="100%" y2="0%"><stop offset="14.444444444444446%" stop-color="#33b4f5" stop-opacity="1"></stop><stop offset="85.55555555555554%" stop-color="#33b4f5" stop-opacity="1"></stop></linearGradient></defs><defs><linearGradient id="grad1_1" x1="43.8%" y1="100%" x2="100%" y2="0%"><stop offset="14.444444444444446%" stop-color="#33b4f5" stop-opacity="1"></stop><stop offset="85.55555555555554%" stop-color="#8fccf9" stop-opacity="1"></stop></linearGradient></defs><defs><linearGradient id="grad1_2" x1="43.8%" y1="100%" x2="100%" y2="0%"><stop offset="14.444444444444446%" stop-color="#cae5fc" stop-opacity="1"></stop><stop offset="85.55555555555554%" stop-color="#8fccf9" stop-opacity="1"></stop></linearGradient></defs><defs><linearGradient id="grad1_3" x1="43.8%" y1="100%" x2="100%" y2="0%"><stop offset="14.444444444444446%" stop-color="#cae5fc" stop-opacity="1"></stop><stop offset="85.55555555555554%" stop-color="#ffffff" stop-opacity="1"></stop></linearGradient></defs><defs><linearGradient id="grad2_0" x1="0%" y1="100%" x2="56.3%" y2="0%"><stop offset="14.444444444444446%" stop-color="#33b4f5" stop-opacity="1"></stop><stop offset="85.55555555555554%" stop-color="#33b4f5" stop-opacity="1"></stop></linearGradient></defs><defs><linearGradient id="grad2_1" x1="0%" y1="100%" x2="56.3%" y2="0%"><stop offset="14.444444444444446%" stop-color="#8fccf9" stop-opacity="1"></stop><stop offset="85.55555555555554%" stop-color="#33b4f5" stop-opacity="1"></stop></linearGradient></defs><defs><linearGradient id="grad2_2" x1="0%" y1="100%" x2="56.3%" y2="0%"><stop offset="14.444444444444446%" stop-color="#8fccf9" stop-opacity="1"></stop><stop offset="85.55555555555554%" stop-color="#cae5fc" stop-opacity="1"></stop></linearGradient></defs><defs><linearGradient id="grad2_3" x1="0%" y1="100%" x2="56.3%" y2="0%"><stop offset="14.444444444444446%" stop-color="#ffffff" stop-opacity="1"></stop><stop offset="85.55555555555554%" stop-color="#cae5fc" stop-opacity="1"></stop></linearGradient></defs><g transform="translate(960, 540)"><path d="M-351 0C-325.6 -38.3 -300.1 -76.6 -284.6 -117.9C-269 -159.2 -263.3 -203.4 -240.4 -240.4C-217.5 -277.4 -177.3 -307.1 -134.3 -324.3C-91.4 -341.5 -45.7 -346.2 0 -351L0 0Z" fill="#e5f2fe"></path><path d="M-263.2 0C-244.2 -28.7 -225.1 -57.4 -213.4 -88.4C-201.8 -119.4 -197.5 -152.6 -180.3 -180.3C-163.1 -208 -133 -230.3 -100.7 -243.2C-68.5 -256.1 -34.3 -259.7 0 -263.2L0 0Z" fill="#aed9fb"></path><path d="M-175.5 0C-162.8 -19.1 -150.1 -38.3 -142.3 -58.9C-134.5 -79.6 -131.7 -101.7 -120.2 -120.2C-108.7 -138.7 -88.6 -153.5 -67.2 -162.1C-45.7 -170.7 -22.8 -173.1 0 -175.5L0 0Z" fill="#6ac0f7"></path><path d="M-87.7 0C-81.4 -9.6 -75 -19.1 -71.1 -29.5C-67.3 -39.8 -65.8 -50.9 -60.1 -60.1C-54.4 -69.3 -44.3 -76.8 -33.6 -81.1C-22.8 -85.4 -11.4 -86.6 0 -87.7L0 0Z" fill="#33b4f5"></path></g><g transform="translate(0, 0)"><path d="M351 0C331.6 38.5 312.1 77.1 299.3 124C286.5 170.9 280.4 226.1 248.2 248.2C216 270.2 157.8 259.1 112.1 270.7C66.4 282.3 33.2 316.6 0 351L0 0Z" fill="#e5f2fe"></path><path d="M263.3 0C248.7 28.9 234.1 57.8 224.5 93C214.9 128.2 210.3 169.6 186.1 186.1C162 202.7 118.4 194.3 84.1 203C49.8 211.7 24.9 237.5 0 263.3L0 0Z" fill="#aed9fb"></path><path d="M175.5 0C165.8 19.3 156.1 38.5 149.7 62C143.3 85.4 140.2 113.1 124.1 124.1C108 135.1 78.9 129.5 56.1 135.3C33.2 141.1 16.6 158.3 0 175.5L0 0Z" fill="#6ac0f7"></path><path d="M87.8 0C82.9 9.6 78 19.3 74.8 31C71.6 42.7 70.1 56.5 62 62C54 67.6 39.5 64.8 28 67.7C16.6 70.6 8.3 79.2 0 87.8L0 0Z" fill="#33b4f5"></path></g></svg>