<svg id="visual" viewBox="0 0 960 540" width="960" height="540" xmlns="http://www.w3.org/2000/svg" xmlns:xlink="http://www.w3.org/1999/xlink" version="1.1"><g transform="translate(465.61894836034753 274.2507839308006)"><path d="M102.7 -170.4C140.1 -156.3 182.2 -142.9 204.5 -114.6C226.9 -86.3 229.4 -43.2 230.3 0.5C231.2 44.2 230.3 88.3 213.9 126.9C197.5 165.4 165.5 198.3 127.2 208.7C89 219.2 44.5 207.1 8.2 192.9C-28.2 178.8 -56.3 162.6 -93.7 151.7C-131.1 140.7 -177.7 135.1 -191.7 110.7C-205.8 86.3 -187.3 43.2 -187.4 -0.1C-187.6 -43.3 -206.4 -86.7 -200.7 -125.6C-195.1 -164.6 -165.1 -199.2 -127.5 -213.2C-90 -227.2 -45 -220.6 -6.2 -209.9C32.7 -199.2 65.3 -184.5 102.7 -170.4" fill="#abe3d5"></path></g></svg>