<svg xmlns="http://www.w3.org/2000/svg" viewBox="0 0 430 430">
  <defs>
    <style>
      .cls-1 {
        isolation: isolate;
      }

      .cls-2, .cls-3 {
        fill: #ffc738;
      }

      .cls-3 {
        mix-blend-mode: multiply;
        opacity: 0.5;
      }

      .cls-4 {
        fill: #b26836;
      }

      .cls-5 {
        mix-blend-mode: overlay;
        opacity: 0.3;
      }
    </style>
  </defs>
  <g class="cls-1">
    <g id="Warstwa_1" data-name="Warstwa 1">
      <g>
        <g>
          <path class="cls-2" d="M383.86,229A119.41,119.41,0,0,1,236.41,345c-1.55-.38-3.08-.78-4.61-1.21s-3.13-.93-4.66-1.44l-1.3-.44-.37-.13a119.44,119.44,0,0,1-52-35.74h0l0,0-.6-.74c-.13-.16-.28-.32-.4-.48l-.6-.73-.18-.23-.18-.23c-.29-.35-.56-.69-.83-1a1.83,1.83,0,0,1-.13-.16c-.33-.42-.65-.84-1-1.27l-.25-.33c-.39-.5-.77-1-1.13-1.52L168,299v0c-.45-.6-.88-1.2-1.3-1.81a5.8,5.8,0,0,1-.34-.52l-.91-1.33c-.3-.44-.58-.88-.88-1.33-.06-.1-.13-.2-.19-.31a116.51,116.51,0,0,1-9.69-18.24c-1.12-2.62-2.12-5.29-3-8a116.71,116.71,0,0,1-4.5-17.53,119.22,119.22,0,0,1,14.31-80.85c1.11-1.9,2.26-3.76,3.48-5.59.3-.45.59-.9.89-1.34,1.53-2.26,3.13-4.46,4.82-6.61l1.19-1.5a.79.79,0,0,0,.12-.15l1.26-1.52c.44-.53.89-1,1.34-1.56l1.34-1.53c.86-.94,1.73-1.88,2.62-2.79L180,145a.83.83,0,0,1,.13-.14c.47-.48,1-1,1.45-1.43s1-.93,1.45-1.38a.18.18,0,0,0,.07-.08l1.56-1.43,1.46-1.29c.27-.24.54-.48.83-.72l.82-.7.08-.08c.63-.53,1.25-1.05,1.9-1.56l1.51-1.2c1.15-.91,2.33-1.79,3.51-2.64l1.56-1.11.75-.52c.56-.39,1.12-.77,1.69-1.14,1.14-.76,2.3-1.51,3.48-2.23l1.42-.86.52-.3c.43-.26.85-.51,1.28-.75,1.24-.71,2.49-1.39,3.75-2.05l1.51-.79,1.55-.77,1.42-.68c1.33-.63,2.68-1.24,4-1.82q3.65-1.56,7.39-2.86c1-.36,2.07-.71,3.1-1.05l.9-.28c.84-.26,1.67-.51,2.52-.75a119.14,119.14,0,0,1,33-4.62q5.9,0,11.65.57a118.15,118.15,0,0,1,17.07,2.93c2.49.61,4.94,1.31,7.37,2.08q4.68,1.47,9.19,3.32A119.29,119.29,0,0,1,383.86,229Z"/>
          <path class="cls-3" d="M383.86,229A119.41,119.41,0,0,1,236.41,345c-1.55-.38-3.08-.78-4.61-1.21s-3.13-.93-4.66-1.44l-1.3-.44-.37-.13a119.44,119.44,0,0,1-52-35.74h0l0,0-.6-.74c-.13-.16-.28-.32-.4-.48l-.6-.73-.18-.23-.18-.23c-.29-.35-.56-.69-.83-1a1.83,1.83,0,0,1-.13-.16c-.33-.42-.65-.84-1-1.27l-.25-.33c-.39-.5-.77-1-1.13-1.52L168,299v0c-.45-.6-.88-1.2-1.3-1.81a5.8,5.8,0,0,1-.34-.52l-.91-1.33c-.3-.44-.58-.88-.88-1.33-.06-.1-.13-.2-.19-.31a116.51,116.51,0,0,1-9.69-18.24c-1.12-2.62-2.12-5.29-3-8a116.71,116.71,0,0,1-4.5-17.53,119.22,119.22,0,0,1,14.31-80.85c1.11-1.9,2.26-3.76,3.48-5.59.3-.45.59-.9.89-1.34,1.53-2.26,3.13-4.46,4.82-6.61l1.19-1.5a.79.79,0,0,0,.12-.15l1.26-1.52c.44-.53.89-1,1.34-1.56l1.34-1.53c.86-.94,1.73-1.88,2.62-2.79L180,145a.83.83,0,0,1,.13-.14c.47-.48,1-1,1.45-1.43s1-.93,1.45-1.38a.18.18,0,0,0,.07-.08l1.56-1.43,1.46-1.29c.27-.24.54-.48.83-.72l.82-.7.08-.08c.63-.53,1.25-1.05,1.9-1.56l1.51-1.2c1.15-.91,2.33-1.79,3.51-2.64l1.56-1.11.75-.52c.56-.39,1.12-.77,1.69-1.14,1.14-.76,2.3-1.51,3.48-2.23l1.42-.86.52-.3c.43-.26.85-.51,1.28-.75,1.24-.71,2.49-1.39,3.75-2.05l1.51-.79,1.55-.77,1.42-.68c1.33-.63,2.68-1.24,4-1.82q3.65-1.56,7.39-2.86c1-.36,2.07-.71,3.1-1.05l.9-.28c.84-.26,1.67-.51,2.52-.75a119.14,119.14,0,0,1,33-4.62q5.9,0,11.65.57a118.15,118.15,0,0,1,17.07,2.93c2.49.61,4.94,1.31,7.37,2.08q4.68,1.47,9.19,3.32A119.29,119.29,0,0,1,383.86,229Z"/>
          <path class="cls-2" d="M367.72,289a119.77,119.77,0,0,1-56.25,49.77l-21.24-24L287,311l-101-114.27-3.28-3.71-21.12-23.88-.1-.11a119.84,119.84,0,0,1,56.26-49.77l.14.14,21.09,23.87,3.27,3.71L343.23,261.27l3.28,3.71Z"/>
          <path class="cls-4" d="M264.57,317.51A88.5,88.5,0,1,1,353.07,229,88.59,88.59,0,0,1,264.57,317.51Zm0-170a81.5,81.5,0,1,0,81.5,81.5A81.59,81.59,0,0,0,264.57,147.52Z"/>
        </g>
        <g>
          <path class="cls-2" d="M269.67,108.17v1.6c-1.62-.08-3.25-.11-4.88-.11a118.9,118.9,0,0,0-33.2,4.69c-.85.24-1.68.49-2.52.75l-.9.28c-1,.34-2.07.69-3.1,1.05-2.49.88-4.95,1.84-7.35,2.89q-2.41,1-4.75,2.16c-.69.32-1.37.65-2.05,1h0c-.65.32-1.28.65-1.92,1a119.7,119.7,0,0,0-21.17,14.3H100.27c-.67,0-1.34,0-2-.08h-.12a26.53,26.53,0,0,1-22.64-16.85l-.18-.48c-.19-.51-.37-1-.52-1.55l-.18-.63c0-.13-.08-.26-.11-.39-.07-.29-.14-.58-.2-.88s-.13-.59-.19-.89-.11-.62-.17-.93-.12-.88-.15-1.32-.09-.85-.1-1.27,0-.91,0-1.37v-3q0-.65,0-1.29a26.57,26.57,0,0,1,26.54-25.19H243.1a26,26,0,0,1,5.63.61,26.48,26.48,0,0,1,16.2,10.83,25.78,25.78,0,0,1,3.22,6.21c.12.33.23.67.33,1s.25.84.35,1.27c0,.1.06.2.08.3h0l0,.17c0,.1.06.2.09.3s.08.34.1.5c.14.65.26,1.31.34,2,.06.48.11,1,.14,1.45,0,.19,0,.37,0,.56Q269.67,107.53,269.67,108.17Z"/>
          <path class="cls-2" d="M173.45,306H72.92a25.87,25.87,0,0,1-4.06-.31h0A25.15,25.15,0,0,1,65,304.8l-.19-.06-.12,0-.13-.05A25.86,25.86,0,0,1,56,299.93l-.44-.38,0,0,0,0a7.7,7.7,0,0,1-.6-.54l-.08-.07c-.42-.39-.82-.79-1.22-1.21l-.14-.15a.65.65,0,0,1-.08-.09c-.4-.42-.78-.85-1.13-1.3l0-.05c-.18-.22-.34-.44-.51-.66l-.12-.15-.73-1.05-.19-.27c-.19-.29-.38-.58-.56-.88l-.18-.3c-.14-.22-.26-.44-.38-.67s-.19-.38-.28-.58-.24-.45-.35-.68c0,0,0,0,0-.05-.12-.27-.25-.54-.36-.82l-.09-.19s0,0,0,0c-.13-.29-.25-.59-.36-.89l-.12-.3c-.15-.41-.3-.82-.43-1.24s-.18-.6-.25-.9l-.09-.36c-.06-.21-.11-.42-.16-.64a2.47,2.47,0,0,1-.06-.29s0,0,0-.06a1.21,1.21,0,0,1,0-.18l-.06-.27a.34.34,0,0,0,0-.1q-.1-.52-.18-1c0-.21-.07-.43-.09-.65a5.93,5.93,0,0,1-.07-.59s0-.05,0-.07l0-.45a2.13,2.13,0,0,1,0-.25c0-.07,0-.14,0-.21a2.44,2.44,0,0,0,0-.27c0-.12,0-.25,0-.37a.28.28,0,0,1,0-.09c0-.37,0-.73,0-1.1v-3c0-.36,0-.72,0-1.08a.22.22,0,0,1,0-.08c0-.15,0-.29,0-.43a2.18,2.18,0,0,0,0-.25c0-.07,0-.13,0-.2a.25.25,0,0,1,0-.12l0-.42a1,1,0,0,1,0-.17s0-.07,0-.1c0-.25.06-.5.1-.75l0-.24c0-.1,0-.2,0-.3,0-.26.08-.51.14-.77,0,0,0-.07,0-.1,0-.26.09-.51.14-.75a0,0,0,0,0,0,0c.06-.28.13-.57.21-.85,0-.06,0-.12,0-.18a.28.28,0,0,1,0-.12c.08-.32.17-.63.26-.94s.23-.67.35-1,.22-.61.34-.91a.85.85,0,0,1,.06-.17c.1-.24.19-.47.31-.71a2.15,2.15,0,0,1,.13-.32c.13-.27.25-.53.38-.79a26.94,26.94,0,0,1,2.15-3.58,26.59,26.59,0,0,1,18.28-11,.06.06,0,0,1,.07,0,27.75,27.75,0,0,1,3.31-.2h74.25v0c.25,1.31.5,2.62.76,3.92a4.15,4.15,0,0,1,.11.48c.07.34.14.67.23,1l.18.8c.07.31.14.62.22.93s.21.88.32,1.32.22.86.34,1.29l0,.1c.09.37.18.74.29,1.11,0,.18.09.36.14.54s.13.47.22.71c.15.54.31,1.08.47,1.63.05.16.1.31.14.47l.17.56q.39,1.24.81,2.46c.25.73.5,1.45.76,2.17a1.87,1.87,0,0,1,.07.22c.11.28.21.55.3.82l.06.15c.05.12.09.23.13.35.13.36.26.71.41,1.06s.22.6.34.9.15.37.24.56a.84.84,0,0,0,.06.14q.18.5.39,1l.09.2.1.27,0,.09h0c.16.39.32.77.5,1.16a.25.25,0,0,0,.06.14c.07.16.13.33.2.49.18.42.37.83.56,1.24s.44,1,.67,1.45c.08.22.19.43.29.64l.42.86.29.58a.06.06,0,0,1,0,.05c.25.51.5,1,.77,1.53l.24.47c.26.5.52,1,.79,1.51.16.31.32.61.5.91s.19.34.27.51a.94.94,0,0,1,.12.22c.31.56.62,1.11.94,1.66.47.8.93,1.6,1.42,2.38l.11.18.46.77,1,1.54.14.22c.36.55.71,1.1,1.07,1.64l.91,1.33c.35.52.71,1,1.09,1.55l.55.78v0l.18.25.29.38h0l.21.28.62.85.25.33c.32.43.64.85,1,1.27a1.83,1.83,0,0,0,.13.16c.27.35.54.69.83,1l.18.23.78,1c.12.16.27.32.4.48l.6.74Z"/>
          <path class="cls-2" d="M147.17,249.89v0h-32.9l-.91,0h-.18A26.54,26.54,0,0,1,87.7,223.34v-3A26.55,26.55,0,0,1,114,193.82h36.66a120.37,120.37,0,0,0-3.45,56.08Z"/>
          <path class="cls-2" d="M187.8,137.71l-.08.08a119.44,119.44,0,0,0-37.1,56H72.92c-.5,0-1,0-1.46,0a26.57,26.57,0,0,1-25.1-26.53v-3a26.55,26.55,0,0,1,26.56-26.57Z"/>
          <path class="cls-3" d="M173.23,306H72.7a26.56,26.56,0,0,1-26.56-26.57v-3A26.57,26.57,0,0,1,72.7,249.88H147v0A118.81,118.81,0,0,0,173.23,306Z"/>
          <path class="cls-3" d="M187.59,137.7a119.38,119.38,0,0,0-37.18,56.1H72.7a26.57,26.57,0,0,1-26.56-26.57v-3A26.56,26.56,0,0,1,72.7,137.7Z"/>
          <path class="cls-5" d="M269.67,108.14v1.6c-1.62-.08-3.25-.11-4.88-.11a118.9,118.9,0,0,0-33.2,4.69c-.85.24-1.68.49-2.52.75l-.9.28c-1,.34-2.07.69-3.1,1.05-2.49.88-4.95,1.84-7.35,2.89q-2.41,1-4.75,2.16c-.69.32-1.37.65-2.05,1h0c-.65.32-1.28.65-1.92,1a119.7,119.7,0,0,0-21.17,14.3h-.08a119.59,119.59,0,0,0-40.55,112.1v0h0v0c.25,1.31.5,2.62.76,3.92a4.15,4.15,0,0,1,.11.48c.07.34.14.67.23,1l.18.8c.07.31.14.62.22.93s.21.88.32,1.32.22.86.34,1.29l0,.1c.09.37.18.74.29,1.11,0,.18.09.36.14.54s.13.47.22.71c.15.54.31,1.08.47,1.63.05.16.1.31.14.47l.17.56q.39,1.25.81,2.46c.25.73.5,1.45.76,2.17a1.87,1.87,0,0,1,.07.22c.11.28.21.55.3.82l.06.15c.05.12.09.23.13.35.13.36.26.71.41,1.06s.22.6.34.9.15.37.24.56a.84.84,0,0,0,.06.14q.18.5.39,1l.09.2.1.27,0,.09h0c.16.39.32.77.5,1.16a.25.25,0,0,0,.06.14c.07.16.13.33.2.49.18.42.37.83.56,1.24s.44,1,.67,1.45c.08.22.19.43.29.64l.42.86.29.58a.06.06,0,0,1,0,.05l1,2c.42.82.86,1.62,1.29,2.42q.15.26.27.51l1.06,1.88c.47.8.93,1.6,1.42,2.38l.11.18c.46.78.95,1.55,1.44,2.31l.33.53c.3.45.58.89.88,1.33l.91,1.33c.1.17.22.34.34.52.25.34.49.69.75,1l.55.78s0,0,0,0c.14.21.31.42.47.63h0a1.86,1.86,0,0,0,.21.28c.19.29.41.57.62.85a3.59,3.59,0,0,0,.25.33c.32.43.64.85,1,1.27a1.83,1.83,0,0,0,.13.16c.27.35.54.69.83,1l.18.23.18.23.6.73c.12.16.27.32.4.48l.6.74s0,0,0,0h-16a120.18,120.18,0,0,1-9-9.57s0,0,0,0c-.22-.24-.42-.49-.61-.74-.34-.4-.68-.8-1-1.21s-.81-1-1.19-1.5a1.83,1.83,0,0,1-.13-.16l-1-1.27-.25-.33c-.38-.5-.76-1-1.13-1.52l-.18-.25s0,0,0,0c-.44-.6-.88-1.2-1.28-1.81a118.15,118.15,0,0,1-12-21.73c-1.1-2.62-2.12-5.29-3-8a114.35,114.35,0,0,1-4.5-17.53,117.88,117.88,0,0,1-1.84-20.89,119.12,119.12,0,0,1,36.24-85.63l1.54-1.46c.52-.48,1-1,1.56-1.43s1-.87,1.45-1.29,1.09-1,1.64-1.42l.1-.08a119,119,0,0,1,29.88-18.42q3.63-1.56,7.38-2.86c1-.36,2.07-.71,3.11-1l.89-.28c.83-.26,1.67-.51,2.51-.75a119.37,119.37,0,0,1,33-4.62q5.9,0,11.66.57a118.39,118.39,0,0,1,17.07,2.93c.34.09.7.17,1.05.27.06.31.1.63.14.94.06.48.11,1,.14,1.45,0,.19,0,.37,0,.56Q269.67,107.5,269.67,108.14Z"/>
        </g>
      </g>
    </g>
  </g>
</svg>
