<?xml version="1.0" encoding="utf-8"?>
<!-- Generator: Adobe Illustrator 24.0.2, SVG Export Plug-In . SVG Version: 6.00 Build 0)  -->
<svg version="1.1" id="outline" xmlns="http://www.w3.org/2000/svg" xmlns:xlink="http://www.w3.org/1999/xlink" x="0px" y="0px"
	 viewBox="0 0 500 500" style="enable-background:new 0 0 500 500;" xml:space="preserve">
<style type="text/css">
	.st0{fill:#F24C00;}
	.st1{fill:#FFC738;}
	.st2{fill:#ebe6ef;}
	.st3{fill:#121331;}
	.st4{fill:#3A3347;}
	.st5{fill:#66d7ee;}
	.st6{opacity:0.5;fill:#ebe6ef;}
	.st7{opacity:0.5;}
	.st8{opacity:0.5;fill:#66d7ee;}
	.st9{fill:#B26836;}
	.st10{opacity:0.5;fill:#B26836;}
	.st11{opacity:0.5;fill:#3A3347;}
	.st12{opacity:0.5;fill:#FFC738;}
	.st13{fill:#F9C9C0;}
	.st14{opacity:0.5;fill:#F9C9C0;}
	.st15{opacity:0.5;fill:#F24C00;}
	.st16{fill:#08A88A;}
	.st17{fill:#107c91;}
	.st18{opacity:0.5;fill:#107c91;}
	.st19{fill:#2CA58D;}
	.st20{fill:#F1F1F1;}
	.st21{fill:#F28BA8;}
	.st22{opacity:0.5;fill:#F28BA8;}
	.st23{fill:#92140C;}
	.st24{opacity:0.5;fill:#92140C;}
	.st25{fill:#FFFFFF;}
	.st26{fill:none;}
	.st27{opacity:0.5;fill:#2CA58D;}
	.st28{opacity:0.4;fill:#B26836;}
	.st29{fill:none;stroke:#121331;stroke-width:7;stroke-linecap:round;stroke-linejoin:round;stroke-miterlimit:10;}
	.st30{fill:#08A789;}
</style>
<g>
	<path class="st17" d="M142.14,350.84h35.68c19.71,0,35.68,15.98,35.68,35.68v11.94c0,3.27-2.45,6.03-5.71,6.41l-12.49,1.44
		c-3.41,0.39-6.75,1.27-9.92,2.59h0c-16.3,6.81-34.64,6.83-50.96,0.05l-0.09-0.04c-3.31-1.37-6.79-2.28-10.35-2.69l-11.83-1.36
		c-3.25-0.38-5.71-3.13-5.71-6.41v-11.93C106.46,366.82,122.44,350.84,142.14,350.84z"/>
	<path class="st17" d="M159.15,255.63h1.67c14.5,0,26.12,12.02,25.61,26.52l-0.83,23.98c-0.48,13.8-11.8,24.74-25.61,24.74h0
		c-13.81,0-25.13-10.94-25.61-24.74l-0.83-23.98C133.03,267.66,144.65,255.63,159.15,255.63z"/>
</g>
<path class="st2" d="M246.36,215.65l-32.99,32.54c-1.18,1.16-3.08,1.15-4.24-0.03l-32.08-32.51h-44.67
	c-5.65,0-10.23-4.58-10.23-10.23v-72.07c0-5.65,4.58-10.23,10.23-10.23h159.21c5.65,0,10.23,4.58,10.23,10.23v72.07
	c0,5.65-4.58,10.23-10.23,10.23H246.36z"/>
<path class="st3" d="M211.23,253.8c-0.9,0-1.81-0.35-2.49-1.04l-33.16-33.61h-43.21c-7.57,0-13.73-6.16-13.73-13.73v-72.07
	c0-7.57,6.16-13.73,13.73-13.73h159.21c7.57,0,13.73,6.16,13.73,13.73v72.07c0,7.57-6.16,13.73-13.73,13.73h-43.8l-34.1,33.64
	C213.01,253.46,212.12,253.8,211.23,253.8z M132.38,126.62c-3.71,0-6.73,3.02-6.73,6.73v72.07c0,3.71,3.02,6.73,6.73,6.73h44.67
	c0.94,0,1.83,0.38,2.49,1.04l31.73,32.16l32.63-32.19c0.65-0.65,1.54-1.01,2.46-1.01h45.24c3.71,0,6.73-3.02,6.73-6.73v-72.07
	c0-3.71-3.02-6.73-6.73-6.73H132.38z"/>
<g>
	<path class="st17" d="M321.28,347.42h35.68c19.71,0,35.68,15.98,35.68,35.68v11.94c0,3.27-2.45,6.03-5.71,6.41l-12.49,1.44
		c-3.41,0.39-6.75,1.27-9.92,2.59l0,0c-16.3,6.81-34.64,6.83-50.96,0.05l-0.09-0.04c-3.31-1.37-6.79-2.28-10.35-2.69l-11.83-1.36
		c-3.25-0.38-5.71-3.13-5.71-6.41v-11.93C285.6,363.4,301.57,347.42,321.28,347.42z"/>
	<path class="st17" d="M338.29,252.22h1.67c14.5,0,26.12,12.02,25.61,26.52l-0.83,23.98c-0.48,13.8-11.8,24.74-25.61,24.74h0
		c-13.81,0-25.13-10.94-25.61-24.74l-0.83-23.98C312.17,264.24,323.78,252.22,338.29,252.22z"/>
</g>
<path class="st5" d="M325.42,185.6l0.3,30.95c0.02,2.24-2.33,3.71-4.34,2.72l-67.67-33.67h-46.21c-5.84,0-10.58-4.74-10.58-10.58
	v-74.56c0-5.84,4.74-10.58,10.58-10.58h164.71c5.84,0,10.58,4.74,10.58,10.58v74.56c0,5.84-4.74,10.58-10.58,10.58H325.42z"/>
<g class="st7">
	<path class="st17" d="M176.1,412.01c-5.33,1.34-10.79,2.02-16.25,2.02c-8.64,0-17.28-1.69-25.41-5.07l-0.09-0.04
		c-3.31-1.37-6.79-2.28-10.35-2.69l-11.83-1.36c-3.26-0.38-5.71-3.13-5.71-6.41v-11.93c0-19.71,15.97-35.69,35.68-35.69h6.18
		c-13.9,4.88-23.86,18.12-23.86,33.69v11.93c0,3.28,2.45,6.03,5.71,6.41l11.83,1.36c3.56,0.41,7.04,1.32,10.35,2.69l0.09,0.04
		C160.02,410.11,168.05,411.79,176.1,412.01z"/>
	<path class="st17" d="M171.62,328.07c-3.5,1.79-7.46,2.8-11.64,2.8c-6.9,0-13.19-2.74-17.8-7.2c-4.62-4.46-7.57-10.64-7.81-17.54
		l-0.83-23.98c-0.51-14.49,11.1-26.51,25.61-26.51h1.67c1.78,0,3.52,0.18,5.2,0.53c-8.85,4.28-14.85,13.48-14.48,23.98l0.83,23.98
		c0.24,6.9,3.19,13.08,7.81,17.54C163.33,324.71,167.25,326.96,171.62,328.07z"/>
</g>
<g class="st7">
	<path class="st17" d="M355.24,408.59c-5.33,1.34-10.79,2.02-16.25,2.02c-8.64,0-17.28-1.69-25.42-5.07l-0.08-0.03
		c-3.31-1.38-6.79-2.28-10.35-2.69l-11.83-1.37c-3.26-0.37-5.71-3.13-5.71-6.41v-11.93c0-19.71,15.97-35.68,35.68-35.68h6.18
		c-13.9,4.88-23.86,18.11-23.86,33.68v11.93c0,3.28,2.45,6.04,5.71,6.41l11.83,1.37c3.56,0.41,7.04,1.31,10.35,2.69l0.08,0.03
		C339.16,406.69,347.19,408.37,355.24,408.59z"/>
	<path class="st17" d="M350.76,324.65c-3.5,1.8-7.46,2.8-11.64,2.8c-6.9,0-13.19-2.73-17.8-7.19c-4.62-4.46-7.57-10.64-7.81-17.54
		l-0.84-23.98c-0.5-14.5,11.11-26.52,25.61-26.52h1.67c1.78,0,3.52,0.18,5.2,0.53c-8.85,4.28-14.84,13.48-14.48,23.99l0.84,23.98
		c0.24,6.9,3.19,13.08,7.81,17.54C342.47,321.3,346.39,323.54,350.76,324.65z"/>
</g>
<path class="st6" d="M222.32,239.36l-8.95,8.83c-1.18,1.17-3.08,1.15-4.24-0.03l-32.08-32.51h-44.67c-5.65,0-10.23-4.58-10.23-10.23
	v-72.06c0-5.65,4.58-10.23,10.23-10.23h2.77v73.29c0,5.65,4.58,10.23,10.23,10.23h44.67L222.32,239.36z"/>
<path class="st8" d="M325.72,216.55c0.02,2.24-2.33,3.72-4.33,2.72l-67.68-33.67H207.5c-5.84,0-10.58-4.73-10.58-10.58v-74.55
	c0-5.85,4.74-10.59,10.58-10.59h2.42v76.14c0,5.85,4.74,10.58,10.58,10.58h46.21l58.91,29.31L325.72,216.55z"/>
<g>
	<path class="st3" d="M159.85,417.49c-9.13,0-18.25-1.77-26.76-5.3c0,0-0.09-0.04-0.1-0.04c-2.99-1.24-6.16-2.07-9.39-2.44
		l-11.83-1.36c-5.02-0.58-8.81-4.83-8.81-9.88v-11.94c0-21.6,17.58-39.18,39.18-39.18h35.68c21.6,0,39.18,17.58,39.18,39.18v11.94
		c0,5.05-3.79,9.3-8.81,9.88l-12.49,1.44c-3.08,0.36-6.1,1.15-8.97,2.34C178.2,415.7,169.03,417.49,159.85,417.49z M142.14,354.34
		c-17.75,0-32.18,14.44-32.18,32.18v11.94c0,1.5,1.12,2.76,2.61,2.93l11.83,1.36c3.88,0.45,7.68,1.43,11.29,2.93
		c0,0,0.09,0.04,0.1,0.04c15.33,6.37,32.92,6.35,48.25-0.06c3.47-1.45,7.13-2.41,10.87-2.84l12.49-1.44
		c1.49-0.17,2.61-1.43,2.61-2.93v-11.94c0-17.75-14.44-32.18-32.18-32.18H142.14z"/>
	<path class="st3" d="M159.98,334.37c-15.77,0-28.56-12.35-29.11-28.11l-0.83-23.98c-0.28-7.97,2.62-15.51,8.16-21.25
		c5.54-5.73,12.98-8.89,20.95-8.89h1.67c7.97,0,15.41,3.16,20.95,8.89c5.54,5.73,8.44,13.28,8.16,21.25l-0.83,23.98
		C188.54,322.02,175.76,334.37,159.98,334.37z M159.15,259.13c-6.06,0-11.71,2.4-15.92,6.75c-4.21,4.36-6.41,10.09-6.2,16.14
		l0.83,23.98c0.42,11.98,10.13,21.36,22.11,21.36s21.7-9.38,22.11-21.36l0.83-23.98c0.21-6.05-1.99-11.78-6.2-16.14
		c-4.21-4.36-9.86-6.75-15.92-6.75H159.15z"/>
</g>
<g>
	<path class="st3" d="M338.99,414.07c-9.13,0-18.25-1.77-26.76-5.3c-3.09-1.29-6.26-2.11-9.49-2.48l-11.83-1.36
		c-5.02-0.58-8.81-4.83-8.81-9.88v-11.93c0-21.61,17.58-39.18,39.18-39.18h35.68c21.61,0,39.18,17.58,39.18,39.18v11.94
		c0,5.05-3.79,9.3-8.81,9.88l-12.49,1.44c-3.09,0.36-6.11,1.15-8.97,2.34C357.34,412.29,348.16,414.07,338.99,414.07z
		 M321.28,350.92c-17.75,0-32.18,14.44-32.18,32.18v11.93c0,1.5,1.12,2.76,2.61,2.93l11.83,1.36c3.88,0.45,7.68,1.43,11.29,2.94
		c15.43,6.41,33.02,6.4,48.35-0.01c3.47-1.45,7.13-2.41,10.87-2.84l12.49-1.44c1.49-0.17,2.61-1.43,2.61-2.93v-11.94
		c0-17.75-14.44-32.18-32.18-32.18H321.28z"/>
	<path class="st3" d="M339.12,330.95c-15.77,0-28.56-12.35-29.11-28.11l-0.83-23.98c-0.28-7.97,2.62-15.51,8.16-21.25
		c5.54-5.73,12.98-8.89,20.95-8.89h1.67c7.97,0,15.41,3.16,20.95,8.89c5.54,5.73,8.44,13.28,8.16,21.25l-0.83,23.98
		C367.68,318.6,354.9,330.95,339.12,330.95z M338.29,255.72c-6.06,0-11.71,2.4-15.92,6.75c-4.21,4.36-6.41,10.09-6.2,16.14
		l0.83,23.98c0.42,11.98,10.13,21.36,22.11,21.36s21.7-9.38,22.11-21.36l0.83-23.98c0.21-6.05-1.99-11.78-6.2-16.14
		c-4.21-4.36-9.86-6.75-15.92-6.75H338.29z"/>
</g>
<path class="st3" d="M325.77,224.95c-0.53,0-1.07-0.12-1.56-0.37l-71.32-35.48h-45.39c-7.77,0-14.08-6.32-14.08-14.08v-74.56
	c0-7.76,6.32-14.08,14.08-14.08h164.71c7.77,0,14.08,6.32,14.08,14.08v74.56c0,7.77-6.32,14.08-14.08,14.08h-43.27l0.32,32.31
	c0.01,1.22-0.61,2.35-1.64,3C327.06,224.77,326.42,224.95,325.77,224.95z M207.51,93.38c-3.91,0-7.08,3.18-7.08,7.08v74.56
	c0,3.91,3.18,7.08,7.08,7.08h46.21c0.54,0,1.07,0.12,1.56,0.37l66.94,33.3l-0.3-30.13c-0.01-0.93,0.36-1.83,1.01-2.5
	c0.66-0.66,1.55-1.04,2.49-1.04h46.8c3.91,0,7.08-3.18,7.08-7.08v-74.56c0-3.91-3.18-7.08-7.08-7.08H207.51z"/>
</svg>
