<svg id="a3f75c61-5c3d-48d2-9e16-64a4b35e7435" data-name="Layer 1" xmlns="http://www.w3.org/2000/svg" width="865.76" height="682.89" viewBox="0 0 865.76 682.89"><rect x="721.77" y="622.5" width="57.37" height="0.43" fill="#ebebeb"/><rect x="686.8" y="606.43" width="33.24" height="0.43" fill="#ebebeb"/><polyline points="90.71 609.34 165.52 609.34 165.52 609.77 90.71 609.77" fill="#ebebeb"/><rect x="180.95" y="609.34" width="10.96" height="0.43" fill="#ebebeb"/><rect x="227.57" y="616.65" width="162.27" height="0.43" fill="#ebebeb"/><path d="M420.25,37.41V507.49a9.89,9.89,0,0,1-9.89,9.89H75.91" fill="#ebebeb"/><path d="M75.91,516.94H410.36a9.47,9.47,0,0,0,9.46-9.45V37.32" fill="#ebebeb"/><path d="M785.05,517.38H450.57a9.91,9.91,0,0,1-9.89-9.89V37.32" fill="#ebebeb"/><path d="M441.11,37.32V507.49a9.47,9.47,0,0,0,9.46,9.45H785.05" fill="#ebebeb"/><path d="M654.31,304.94h101A19.38,19.38,0,0,0,773,277.8c-6.71-15.4-21-23.75-33.85-12.13-19.38,17.33-18.47-16.33-41.66-11.6-20.28,4.14-17.5,24.11-29.92,28.22S638,300.35,654.31,304.94Z" fill="#fafafa"/><path d="M494.34,123.48H568a14.14,14.14,0,0,0,13-19.75c-4.9-11.24-15.31-17.32-24.7-8.9-14.15,12.71-13.49-11.92-30.41-8.45C511.06,89.39,513.1,104,504,107S482.46,120.12,494.34,123.48Z" fill="#fafafa"/><path d="M640.19,594.84H628.06V207.09a39.41,39.41,0,0,1,39.36-39.37h10.72v12.12H667.42a27.26,27.26,0,0,0-27.23,27.25Z" fill="#f0f0f0"/><rect x="678.14" y="105.47" width="45.97" height="129.88" fill="#ebebeb"/><path d="M678.14,235.38h46v.24a9,9,0,0,1-9,9H687.1a9,9,0,0,1-9-9h0v-.24Z" fill="#e6e6e6"/><circle cx="701.13" cy="132.31" r="14.26" fill="#f0f0f0"/><circle cx="701.13" cy="128.85" r="14.26" fill="#fafafa"/><circle cx="701.13" cy="171.29" r="14.26" fill="#f0f0f0"/><circle cx="701.13" cy="167.82" r="14.26" fill="#fafafa"/><circle cx="701.13" cy="210.26" r="14.26" fill="#f0f0f0"/><circle cx="701.13" cy="206.8" r="14.26" fill="#fafafa"/><rect x="676.63" y="481.43" width="80.01" height="34.92" fill="#ebebeb"/><rect x="671.06" y="476.6" width="11.14" height="44.59" fill="#f5f5f5"/><rect x="751.07" y="476.6" width="11.14" height="44.59" fill="#f5f5f5"/><path d="M669.08,493.33h7.55v11.14h-7.55a3.6,3.6,0,0,1-3.6-3.6v-3.93A3.61,3.61,0,0,1,669.08,493.33Z" fill="#f5f5f5"/><path d="M764.16,504.47h-7.55V493.33h7.55a3.61,3.61,0,0,1,3.6,3.61v3.93A3.6,3.6,0,0,1,764.16,504.47Z" fill="#f5f5f5"/><path d="M738.13,580.08h-43V459.35a21.51,21.51,0,0,1,21.5-21.5h0a21.48,21.48,0,0,1,21.5,21.46V580.08Z" fill="#f5f5f5"/><path d="M698,572.82h37.22a10.66,10.66,0,0,1,10.64,10.67v11.44H687.37V583.55A10.66,10.66,0,0,1,698,572.82Z" fill="#ebebeb"/><circle cx="716.63" cy="498.83" r="18.4" fill="#fafafa"/><path d="M721,498.83a4.38,4.38,0,1,1-4.4-4.37h0A4.38,4.38,0,0,1,721,498.83Z" fill="#ebebeb"/><path d="M687.37,465.46h0a5.57,5.57,0,0,1,5.58-5.57h47.38a5.58,5.58,0,0,1,5.56,5.57h0a5.58,5.58,0,0,1-5.56,5.58H693a5.58,5.58,0,0,1-5.58-5.58Z" fill="#f0f0f0"/><path d="M707.28,527.23h0a5.58,5.58,0,0,1,5.57,5.56V561.6a5.57,5.57,0,0,1-5.57,5.58h0a5.58,5.58,0,0,1-5.56-5.58V532.79a5.56,5.56,0,0,1,5.56-5.56Z" fill="#ebebeb"/><path d="M726,527.23h0a5.58,5.58,0,0,1,5.58,5.56V561.6a5.58,5.58,0,0,1-5.58,5.58h0a5.58,5.58,0,0,1-5.56-5.58V532.79a5.56,5.56,0,0,1,5.56-5.56Z" fill="#ebebeb"/><path d="M124.64,595.1h-4.26a2.19,2.19,0,0,1-2.2-2.2v-.09l4.64-104.67h10.91l-6.92,104.92A2.21,2.21,0,0,1,124.64,595.1Z" fill="#f0f0f0"/><path d="M142.53,595.1h-4.26a2.18,2.18,0,0,1-2.18-2.18v-.11l4.59-104.67h10.95L144.7,593.06A2.18,2.18,0,0,1,142.53,595.1Z" fill="#f0f0f0"/><path d="M192.25,595.1h4.26a2.2,2.2,0,0,0,2.2-2.2v-.09L194.1,488.14H183.15l6.93,104.92A2.19,2.19,0,0,0,192.25,595.1Z" fill="#f0f0f0"/><path d="M209.88,595.1h4.26a2.19,2.19,0,0,0,2.2-2.2v-.09l-4.59-104.67h-11l6.93,104.92A2.18,2.18,0,0,0,209.88,595.1Z" fill="#f0f0f0"/><rect x="142.81" y="426.56" width="9.28" height="49.06" fill="#f0f0f0"/><rect x="183.86" y="426.56" width="9.28" height="49.06" fill="#f0f0f0"/><path d="M224.59,486.08c0,10.84-25.08,9.82-56,9.82s-56,1-56-9.82,25.08-19.65,56-19.65S224.59,475.22,224.59,486.08Z" fill="#f5f5f5"/><path d="M195.21,431.89H141.88A16.15,16.15,0,0,1,125.78,417l-1.73-21.27A16.15,16.15,0,0,1,139,378.46c.39,0,.78,0,1.17,0h56.63a16.12,16.12,0,0,1,16.13,16.12c0,.4,0,.8,0,1.2L211.13,417A16.13,16.13,0,0,1,195.21,431.89Z" fill="#f5f5f5"/><rect x="118.54" y="230.39" width="62.93" height="49.61" fill="#f0f0f0"/><rect x="115.15" y="230.39" width="3.4" height="49.61" fill="#e0e0e0"/><rect x="124.95" y="235.45" width="50.09" height="39.49" fill="#fafafa"/><rect x="129.09" y="238.7" width="41.85" height="33" fill="#ebebeb"/><rect x="194.45" y="149.88" width="69.27" height="87.84" fill="#ebebeb"/><rect x="191.14" y="149.88" width="3.31" height="87.84" fill="#e0e0e0"/><rect x="201.51" y="158.83" width="55.14" height="69.93" fill="#f5f5f5"/><rect x="206.05" y="164.6" width="46.06" height="58.43" fill="#fafafa"/><path d="M220,185.15s8.14,11.51,12.34,11.32c3.82-.15,10.39-11.32,10.39-11.32s-8.14-11.52-12.33-11.33C226.48,174,220,185.15,220,185.15Z" fill="#ebebeb"/><path d="M241.27,210.71c2.41-4.64-10.17-14.39-15.4-14.17-4.8.21-14.79,9.76-12.92,14.17C215.68,217.24,238,217,241.27,210.71Z" fill="#f0f0f0"/><ellipse cx="137.81" cy="160.62" rx="31.27" ry="43.6" fill="#e0e0e0"/><ellipse cx="141.53" cy="160.62" rx="31.27" ry="43.6" fill="#ebebeb"/><ellipse cx="141.53" cy="160.62" rx="26.64" ry="37.14" fill="#e6e6e6"/><ellipse cx="141.53" cy="160.62" rx="23.8" ry="33.19" fill="#fafafa"/><path d="M149,178.65a23.9,23.9,0,0,0,7.34-18.47s-9.82-1.16-9.53,15.3c0,0-11.07-11.48-7.79-18.76,5.19-11.38,5.19-11.38,1.49-18.48,0,0-9.65,3.9-5.2,17a41.17,41.17,0,0,0,1.54,10.11s-9.71-9.32-12.85-3.22c0,0,5.2,9.86,12.85,5.77C136.8,167.93,145.34,183,149,178.65Z" fill="#ebebeb"/><path d="M557.22,271.08c-4.66-4.85-8-13.86-9.58-19.66L540.28,269a12,12,0,0,1,2.7,10.08c0,.16-.26,3.1-5.2,6.12,0,0,.89,17.77,11.47,15.26s16.33-23.61,16.33-23.61l.77-6S561.53,274.91,557.22,271.08Z" fill="#f9b499"/><path d="M542.13,264.69,540.4,269a13,13,0,0,1,2.74,5.77c4.85-5.72,5.38-15,5.38-15Z" fill="#f7a48b"/><path d="M465.29,350.17s28.56,1.16,41.24-2.3S530,322.21,530,322.21l-14.47-8-14.37,21.39-35.82,5.73L455,334.11s-20.79-4.43-20.79-1.73S445,337.27,445,337.27s.64,12.78,5,13.18S465.29,350.17,465.29,350.17Z" fill="#f9b499"/><path d="M535.2,289.08s-12.37,1.73-20.46,16.71-1.17,15.59,5.67,19.82,10.27,5.19,13.42-4.06S543.2,288.12,535.2,289.08Z" fill="#00a6f2"/><path d="M535.17,317.33,530.58,308l-7.71-.58a130.28,130.28,0,0,0,.4,19.85c5,2.61,7.9,2.09,10.56-5.72C534.23,320.34,534.7,318.92,535.17,317.33Z" opacity="0.1" style="isolation:isolate"/><path d="M510.54,229.39s-9,3.18-3.05,12.35-6.07,15.39,14.11,17.92.71-34,.71-34Z" fill="#263238"/><path d="M510.54,229.39s-9,3.18-3.05,12.35-6.07,15.39,14.11,17.92.71-34,.71-34Z" opacity="0.3" style="isolation:isolate"/><path d="M588.12,286.89c-3-19.6-14.43-19.26-25.55-14.88.78,7.38.8,16.81-9.89,22.68-9.61,5.19-13.36-3.47-13.56-10.78-10.08,5.74-18.5,13.08-15.75,27.72,1.58,8.31,8.92,17.44,16.44,29,9,13.86,18.24,29.59,18.24,29.59l51.38-26.16S591.39,308.13,588.12,286.89Z" fill="#00a6f2"/><path d="M588.12,286.89a37.91,37.91,0,0,0-1.85-7.41l-7.78-1.32-4,6.45s8.57,15.1,20,24.65A125,125,0,0,1,588.12,286.89Z" opacity="0.2" style="isolation:isolate"/><path d="M601.86,280.66s17.63,12.12,23,16.71c8,6.93,29.62,30.26,29.62,30.26l13.25,7.24v8.39l-6.27,4.33a4.19,4.19,0,0,1-5.83-1.07l0-.06-8-12s-19.82-18.1-27.11-23.26c-6.17-4.37-26.16-15.09-26.16-15.09Z" fill="#f9b499"/><path d="M569.31,270.2s11.36-5.11,21,0,14,7.91,13,14.08-4.5,18.91-10.88,16.8S565.77,278.79,569.31,270.2Z" fill="#00a6f2"/><path d="M550.32,236.8c1.32,13.28,2.17,18.86-3.37,26.67-8.35,11.77-25,10.48-30.2-2.13-4.74-11.36-6.09-31.18,5.93-38.45a18.17,18.17,0,0,1,27.71,13.86Z" fill="#f9b499"/><path d="M521.67,229.52c-5.19.63-19,4.58-16.85-8.35s26.95-19.38,38.45-11,20.34,7.73,29.45,1,13.55-4.1,25.22,2.2c0,0-6.3,10.88-3.31,17.5,0,0-6.93-6.93-19.87.47,0,0,15-4,20.65,6.37,0,0-1.57,11.42,3.93,18.21s-.15,14.82-21.27,6.63-23.36-.68-28.23-4.3-8.52-13.42-9.29-20.54C540.07,232.5,537.77,227.62,521.67,229.52Z" fill="#2e413c"/><path d="M552.14,245.93a9.73,9.73,0,0,1-3.72,6.46c-2.72,2-5.34,0-5.61-3.31-.26-2.89.84-7.47,4.08-8.26a4.4,4.4,0,0,1,5.2,5.19Z" fill="#f9b499"/><path d="M610.17,634.25s-1.18-7.49-2.94-19L621.69,613c.45,11.07.78,19.85.78,19.85Z" fill="#f9b499"/><path d="M614.24,351.75l-2.34-8.4a1.73,1.73,0,0,0-2.16-1.15,1.57,1.57,0,0,0-.23.09L557.1,368.76a1.71,1.71,0,0,0-.7,2.34s.05.09.07.13l5.3,7.71s13,88.55,18.35,118c5.51,30,25.22,119.85,25.22,119.85a1.24,1.24,0,0,0,1.44,1L622,615.31a1.24,1.24,0,0,0,1.05-1.21c.18-7.65,0-56.05-4.81-90.3-1.74-12.23-5.86-22-7.26-28.77-1.54-7.43.85-12.42,1.73-30.31C614.66,431.11,616.77,377.94,614.24,351.75Z" fill="#2e413c"/><path d="M612.87,464.79c.61-11.28,1.23-24.72,1.73-38.61l-15.2-25.64-6.78-15.14-6.41,8.66s11.33,47.66,26.21,77.59C612.58,469.64,612.75,467.35,612.87,464.79Z" opacity="0.5" style="isolation:isolate"/><path d="M728.22,570.62c6.37,9.06,10.51,15,10.51,15l-9.65,7.83-12.74-14.34Z" fill="#f9b499"/><path d="M725.24,589.44l10.83-8a1.07,1.07,0,0,1,1.35,0l8.43,7.36a1.73,1.73,0,0,1,.29,2.43.39.39,0,0,1-.08.1,1.73,1.73,0,0,1-.28.26c-3.95,2.81-7.58,5.2-12.43,8.75-5.72,4.23-3.76,3.84-10.4,8.9-4,3-8.16-1-6.61-2.51,7.15-6.81,6.21-9.79,7.17-14.84A4.3,4.3,0,0,1,725.24,589.44Z" fill="#00a6f2"/><path d="M610.93,629.72l12-1.93a.8.8,0,0,1,1,.6l2.12,10a2,2,0,0,1-1.08,2.19l-.11,0a1.46,1.46,0,0,1-.34.1c-4.31.61-8.17,1-13.52,1.85-6.33,1-4.73,1.58-12.15,2.9-4.49.79-5.28-4.51-3.39-5.09,8.72-2.57,9.63-5.51,13-9.37A4.41,4.41,0,0,1,610.93,629.72Z" fill="#00a6f2"/><path d="M575.86,373.12S616,465.64,635,493.21c16.85,24.5,80.84,87.17,80.84,87.17a2.71,2.71,0,0,0,3.72.22l8.89-7.55a2.71,2.71,0,0,0,.55-3.46c-5.45-8.89-28.42-45.84-48.58-69.88-8-9.58-15.77-16.61-19.58-21.9-5-6.92-3.83-12.57-7.79-31.95-7.38-36.05-21.76-89.06-43.58-97.53Z" fill="#2e413c"/><path d="M294.2,634.56a18.52,18.52,0,0,1-18.69-20.48l35.93-410.52a22.78,22.78,0,0,1,22.27-20.49h163.5A18.46,18.46,0,0,1,516,201.19a17.1,17.1,0,0,1-.11,2.37L480,614.08a22.8,22.8,0,0,1-22.28,20.48" fill="#407bff" opacity="0.3" style="isolation:isolate"/><path d="M457.7,634.49A22.8,22.8,0,0,0,480,614L515.9,203.49a18.45,18.45,0,0,0-16.32-20.38,17,17,0,0,0-2.37-.11H333.71a22.78,22.78,0,0,0-22.27,20.49L275.51,614a18.47,18.47,0,0,0,16.35,20.36" fill="#d1d3d4"/><path d="M295,625.47a10.27,10.27,0,0,1-10.45-10.09,9.36,9.36,0,0,1,.06-1.3l35.92-410.52a12.69,12.69,0,0,1,12.39-11.4h163.5a10.27,10.27,0,0,1,10.45,10.09,9.58,9.58,0,0,1-.06,1.31L470.88,614.08a12.68,12.68,0,0,1-12.38,11.39" fill="#ececec"/><path d="M441.18,609.17h-45a2.79,2.79,0,0,0-2.73,2.52,2.26,2.26,0,0,0,2,2.5l.29,0h45a2.81,2.81,0,0,0,2.75-2.52,2.28,2.28,0,0,0-2-2.51A1.41,1.41,0,0,0,441.18,609.17Z" fill="#fff"/><path d="M440.07,374H392.4a10.76,10.76,0,0,1-11-10.57,10.62,10.62,0,0,1,.06-1.38l4.17-47.69a13.31,13.31,0,0,1,13-11.95h47.69a10.79,10.79,0,0,1,11,10.61,9.94,9.94,0,0,1-.06,1.34L453.08,362A13.3,13.3,0,0,1,440.07,374Z" opacity="0.2" style="isolation:isolate"/><path d="M434.87,368.76H387.2a10.8,10.8,0,0,1-10.91-12l4.18-47.68a13.29,13.29,0,0,1,13-11.95h47.68a10.78,10.78,0,0,1,11,10.6,10.17,10.17,0,0,1-.06,1.35l-4.18,47.68A13.31,13.31,0,0,1,434.87,368.76Z" fill="#d1d3d4"/><path d="M422.18,328.6c.81-9.25-6.93-16.73-17.5-16.73s-19.61,7.48-20.4,16.73c-.64,7.3,4.12,13.5,11.31,15.77a10.24,10.24,0,0,1-4.54,4.48,5.82,5.82,0,0,0,1.09.54,8.77,8.77,0,0,0,10.39-4.1C412.65,344.94,421.4,337.58,422.18,328.6Z" fill="#fff"/><path d="M444.12,336.61c.68-7.62-5.78-13.86-14.43-13.86a18,18,0,0,0-4.5.57,18.16,18.16,0,0,1,.33,5.2,21.54,21.54,0,0,1-10.39,16.09,14.63,14.63,0,0,0,11.05,5.66,5.65,5.65,0,0,0,7.28,3.29h0a9.1,9.1,0,0,0,.9-.4,6.2,6.2,0,0,1-2.79-3.36C438.3,348.23,443.57,342.93,444.12,336.61Z" fill="#fff"/><path d="M418.21,521.53H382.75a8,8,0,0,1-8.17-7.86,8.71,8.71,0,0,1,.05-1l3.1-35.46a9.91,9.91,0,0,1,9.68-8.9h35.46a8,8,0,0,1,8.17,7.86,7.18,7.18,0,0,1-.05,1l-3.1,35.46A9.89,9.89,0,0,1,418.21,521.53Z" opacity="0.2" style="isolation:isolate"/><path d="M470.25,452.52H426a10,10,0,0,1-10.19-9.82,9.43,9.43,0,0,1,.06-1.3l3.86-44.32A12.38,12.38,0,0,1,431.81,386h44.34a10,10,0,0,1,10.19,9.86,10.62,10.62,0,0,1,0,1.26l-3.87,44.32A12.37,12.37,0,0,1,470.25,452.52Z" opacity="0.2" style="isolation:isolate"/><path d="M465.05,447.33H420.76a10,10,0,0,1-10.2-9.83q0-.64.06-1.29l3.87-44.33a12.39,12.39,0,0,1,12.12-11.12H471a10,10,0,0,1,10.19,9.86q0,.63-.06,1.26l-3.86,44.33A12.41,12.41,0,0,1,465.05,447.33Z" fill="#d1d3d4"/><path d="M413,516.34H377.56a8,8,0,0,1-8.17-7.87,8.7,8.7,0,0,1,0-1l3.1-35.46a9.91,9.91,0,0,1,9.69-8.9h35.45a8,8,0,0,1,8.17,7.87,7.1,7.1,0,0,1,0,1l-3.1,35.46A9.9,9.9,0,0,1,413,516.34Z" fill="#d1d3d4"/><path d="M468,395.76H426.82a5.2,5.2,0,0,0-5.2,4.73l-2.3,27.16a4.26,4.26,0,0,0,3.79,4.69,4.52,4.52,0,0,0,.52,0h41.12a5.2,5.2,0,0,0,5.2-4.71l2.37-27.13a4.26,4.26,0,0,0-3.72-4.73A3.43,3.43,0,0,0,468,395.76ZM436.45,414l-13.77,12.66,2.22-25.32Zm-9-15h39.37l-19.9,18.31a1.94,1.94,0,0,1-2.75,0h0Zm11.15,17.33,3,3.32a4.8,4.8,0,0,0,3.57,1.53,5.67,5.67,0,0,0,3.83-1.53l3.62-3.32,11.61,12.71H424.74ZM455.12,414,469,401.37l-2.22,25.33Z" fill="#fff"/><polygon points="381.35 480.17 391.74 484.4 403.18 476.57 394.58 486.74 400.89 495.64 410.88 470.83 381.35 480.17" fill="#fff"/><polygon points="391.03 486.75 395.71 492.47 390.72 492.47 391.03 486.75" fill="#fff"/><path d="M386.89,494.22l-1.09-.69a12.86,12.86,0,0,1,1.06-1.48l1,.85A12.34,12.34,0,0,0,386.89,494.22Z" fill="#fff"/><path d="M386.37,502.76a4.7,4.7,0,0,1-2.23-2.77l1.25-.35a3.43,3.43,0,0,0,1.73,2Zm-1.09-4.47-1.3-.11a9.19,9.19,0,0,1,1-3.23l1.18.58a7.88,7.88,0,0,0-.87,2.76Z" fill="#fff"/><path d="M412.56,507.33l-1.28-.22a5.2,5.2,0,0,0,.09-1,2.26,2.26,0,0,0-.47-1.54l1-.83a3.69,3.69,0,0,1,.76,2.37A7.73,7.73,0,0,1,412.56,507.33Zm-18.41-3H392.8V503a26.72,26.72,0,0,0,3.1,0v1.3Zm3.46-.13v-1.3c1.06,0,2.12-.18,3.14-.28l.12,1.3Zm-6.42,0h-.54a15.3,15.3,0,0,1-2.68-.61l.41-1.23a12.85,12.85,0,0,0,2.44.55h.51Zm18.71-.26a8.78,8.78,0,0,0-2.88-.42v-1.39a9.45,9.45,0,0,1,3.34.51Zm-7.54-.16-.12-1.3c1.11-.1,2.18-.19,3.17-.24v1.3c-.92,0-2,.08-3.07.19Z" fill="#fff"/><path d="M411.49,510.62l-1.2-.52c.25-.55.45-1.09.61-1.56l1.23.4C412,509.46,411.75,510,411.49,510.62Z" fill="#fff"/><path d="M459.56,292.66H419.72a9,9,0,0,1-9.18-8.86,8.77,8.77,0,0,1,0-1.15l3.46-39.84a11.13,11.13,0,0,1,10.88-10h39.84a9,9,0,0,1,9.18,8.86,8.77,8.77,0,0,1-.05,1.15l-3.46,39.84A11.13,11.13,0,0,1,459.56,292.66Z" opacity="0.2" style="isolation:isolate"/><path d="M454.36,287.47H414.52a9,9,0,0,1-9.18-8.87,8.85,8.85,0,0,1,.05-1.15l3.47-39.84a11.13,11.13,0,0,1,10.87-10h39.84a9,9,0,0,1,9.19,8.87,8.71,8.71,0,0,1-.06,1.14l-3.46,39.84A11.15,11.15,0,0,1,454.36,287.47Z" fill="#d1d3d4"/><path d="M456.49,265.64a29.65,29.65,0,0,0-25.83-28.3,9.82,9.82,0,0,0-12.12,2.8c-3.46,4.21-.38,6.93,3.46,9.94s7.3,5.32,10.71,1.11a10.06,10.06,0,0,0,2.27-5.42,23.28,23.28,0,0,1,13.46,14.76,10,10,0,0,0-5.58,1.73c-4.49,3.05-2.51,6.6.17,10.81s5.08,7.47,9.55,4.4A9.91,9.91,0,0,0,456.49,265.64Z" fill="#fff"/><path d="M439.81,176.07H467c1.35,0,1.52-2.08.19-2.08H440c-1.34,0-1.53,2.08-.19,2.08Z" fill="#d1d3d4"/><path d="M477,176.07h7.88c1.35,0,1.52-2.08.19-2.08h-7.81c-1.34,0-1.53,2.08-.18,2.08Z" fill="#d1d3d4"/><path d="M529.36,386.2,527,413.36a1,1,0,1,0,2.08.17q1.19-13.56,2.38-27.16a1,1,0,0,0-2.07-.17Z" fill="#d1d3d4"/><path d="M526.11,423.3l-.68,7.81a1,1,0,0,0,2.06.18l.68-7.8a1,1,0,0,0-2.06-.19Z" fill="#d1d3d4"/><path d="M288.85,265.33S278.8,264,280,269.19C280.9,273,284.28,265.5,288.85,265.33Z" fill="#2e413c"/><path d="M280.12,277.21s8.28-.09,9.56-15.17c0,0,7.9-2.76,12.39,2.16s-5.82,14.45-.14,19.4C301.93,283.6,296.25,286.7,280.12,277.21Z" fill="#f9b499"/><path d="M310.76,223.91s10.67-2.29,13.45,5.56-15.8,4.4-15.8,4.4Z" fill="#2e413c"/><path d="M310.36,223.91s10.67-2.29,13.44,5.56-15.8,4.4-15.8,4.4Z" opacity="0.3" style="isolation:isolate"/><path d="M284.73,238.62c-.59,12.83-1.11,18.27,4.62,25.5,9.13,7.72,24.55,8.79,28.95-3.62,4-11.16,4.26-30.23-7.69-36.71a17.53,17.53,0,0,0-25.88,14.83Z" fill="#f9b499"/><path d="M274.3,279.81s3.57-9.86,18.34-3.57,16.17,14.95,16.17,14.95Z" fill="#00a6f2"/><path d="M274.3,279.81s3.57-9.86,18.34-3.57,16.17,14.95,16.17,14.95Z" opacity="0.4" style="isolation:isolate"/><path d="M235.41,629.88S234,560.82,244,515.11c2.06-9.36,6.2-17.19,7.71-24.34,1.21-5.73-.62-23.47-.62-23.47l29.88-.69s-2.1,18-3.11,23.9c-.9,5.2-29.44,141.52-29.44,141.52" fill="#f9b499"/><path d="M226.75,463.68s-6,16.46-8.87,21.55c-3.06,5.54-14.7,20.63-14.7,20.63l-62,87-11.87-7.5s17.89-47.92,44.85-86.93c6.42-9.3,15.67-16.38,20.78-25.61,2.9-5.3,5.35-23.6,5.35-23.6Z" fill="#f9b499"/><path d="M243.38,297.11S228.54,316.05,229.8,324s24.53,17.63,24.53,17.63l5.91-8.4L245,322.07l14.55-16.68Z" fill="#f9b499"/><path d="M267.93,278.16c-1.86-.88-10.08-4.17-27.84,18.9,0,0,6.46,8.06,20.3,12.85C260.39,309.86,276,281.92,267.93,278.16Z" fill="#00a6f2"/><path d="M260.39,309.86s2.6-4.64,5.2-10.39c-.42-9.89-1.63-22.17-5.09-17.76-4.61,5.86-11,17.66-13.08,21.6A54,54,0,0,0,260.39,309.86Z" opacity="0.4" style="isolation:isolate"/><path d="M246.41,354.9a134.92,134.92,0,0,0,55.26,15.9l-20,111.57s-57.76-.19-87.95-28.88C193.7,453.43,205.74,392.63,246.41,354.9Z" fill="#2e413c"/><path d="M244,355.14s23.13,17.05,60,15.89c0,0,21.15-58.52,7.9-78.32-8.19-12.23-39.65-17.75-48.12-14.27C253.5,282.63,259.4,319.32,244,355.14Z" fill="#00a6f2"/><path d="M249.51,415.25l-25.72,56.24a178.52,178.52,0,0,0,27.72,7.61S252.37,426.56,249.51,415.25Z" opacity="0.1" style="isolation:isolate"/><path d="M302.12,302.29l-4.09,3a106.91,106.91,0,0,0,15.24,31.85,131.92,131.92,0,0,0,2.9-24.82l-9.11-7.67Z" opacity="0.4" style="isolation:isolate"/><path d="M325.3,310.75l13.85,19.31L374,332.38l6.39-5.32a2.61,2.61,0,0,1,1.51-.62l18.6-1.47a.94.94,0,0,1,1,.89.2.2,0,0,1,0,.11l-.1,1.58a1,1,0,0,1-.87.88l-8.81.69-1.73,9a2.77,2.77,0,0,1-2,2.13L381,342a2.58,2.58,0,0,1-1.35,0l-4.89-1.23s-27.14,5.48-39.6,3.28-24.73-22.52-24.73-22.52Z" fill="#f9b499"/><path d="M309.26,325.45s-22.31-29.84-8.54-36.77S329,312.41,329,312.41,323.3,321,309.26,325.45Z" fill="#00a6f2"/><path d="M142.79,591.25l-13.7-7.58a1.27,1.27,0,0,0-1.56.26l-8.66,9.78a2.1,2.1,0,0,0,.16,3h0l.36.26c5,2.65,9.55,4.81,15.7,8.22,7.25,4,4.93,3.87,13.4,8.66,5.2,2.93,9.29-2.4,7.26-3.89-9.28-6.78-8.66-10.4-10.53-16.08A5.25,5.25,0,0,0,142.79,591.25Z" fill="#00a6f2"/><path d="M306.43,249.65s5.2-1.73,3.29-9.27c0,0,3.07-5.19,2.58-7.95,0,0,15.59-9,6.69-18.84s-25.06-3.28-32.22,9.32c0,0-38,12.36-11.55,35.61C301,281.23,306.43,249.65,306.43,249.65Z" fill="#2e413c"/><path d="M290.74,228.19s-5.94-13,3-22.9S287.79,219.18,290.74,228.19Z" fill="#2e413c"/><path d="M306.43,249.65a3.34,3.34,0,0,0,.44-.17c0-9.77-3.76-21.48-18.17-29.45a32.58,32.58,0,0,0-1.93,2.91s-1.09.37-2.77,1.06c5,5.3,18.69,22.85,3.29,42C302.73,270.84,306.43,249.65,306.43,249.65Z" fill="#00a6f2"/><path d="M295.05,267.72a17.22,17.22,0,0,0,6.26,6.93c.6-1.57,1.13-3.18,1.57-4.8A24,24,0,0,1,295.05,267.72Z" fill="#f7a48b"/><path d="M249.71,628.62c3.37,3.86,4.28,6.81,13,9.38,1.89.57,1.1,5.87-3.39,5.08-7.42-1.32-5.82-1.87-12.15-2.89-5.35-.85-9.21-1.25-13.52-1.86a2.14,2.14,0,0,1-.34-.09l-.11,0a2,2,0,0,1-1.08-2.19l2.12-10a.8.8,0,0,1,1-.61l12,1.93A4.41,4.41,0,0,1,249.71,628.62Z" fill="#00a6f2"/></svg>