<?xml version="1.0" encoding="utf-8"?>
<!-- Generator: Adobe Illustrator 26.3.1, SVG Export Plug-In . SVG Version: 6.00 Build 0)  -->
<svg version="1.1" id="Warstwa_1" xmlns="http://www.w3.org/2000/svg" xmlns:xlink="http://www.w3.org/1999/xlink" x="0px" y="0px"
	 viewBox="0 0 383 430" style="enable-background:new 0 0 430 430;" xml:space="preserve">
<style type="text/css">
	.Styl_x0020_grafiki_x0020_1857{opacity:0.5;fill:#4bb3fd;}
	.Styl_x0020_grafiki_x0020_606{fill:#4bb3fd;}
	.st0{fill:#646E78;}
	.st1{fill:none;stroke:#646E78;stroke-width:7;stroke-linecap:round;stroke-linejoin:round;stroke-miterlimit:10;}
	.st2{fill:#EBE6EF;}
	.st3{fill:#121331;}
	.st4{fill:#3A3347;}
	.st5{fill:#92140C;}
	.st6{fill:#f24c00;}
	.st7{opacity:0.5;fill:#f24c00;}
	.st8{opacity:0.5;fill:#EBE6EF;}
	.st9{fill:#FFC738;}
	.st10{opacity:0.5;fill:#FFC738;}
	.st11{fill:#121331;stroke:#EBE6EF;stroke-width:7;stroke-linecap:round;stroke-linejoin:round;stroke-miterlimit:10;}
	.st12{fill:#4bb3fd;}
	.st13{opacity:0.5;fill:#4bb3fd;}
	.st14{fill:none;stroke:#121331;stroke-width:7;stroke-linecap:round;stroke-linejoin:round;stroke-miterlimit:10;}
	.st15{opacity:0.5;}
	.st16{fill:#121331;stroke:#4bb3fd;stroke-width:30;stroke-linecap:round;stroke-linejoin:round;stroke-miterlimit:10;}
	.st17{fill:none;stroke:#121331;stroke-width:12;stroke-linecap:round;stroke-linejoin:round;}
	.st18{fill:#2CA58D;}
	.st19{fill:none;stroke:#08A88A;stroke-width:12;stroke-linecap:round;stroke-linejoin:round;stroke-miterlimit:10;}
	.st20{opacity:0.5;fill:#2CA58D;}
	.st21{opacity:0.5;fill:#646E78;}
	.st22{fill:none;stroke:#FFC738;stroke-width:7;stroke-linecap:round;stroke-linejoin:round;stroke-miterlimit:10;}
	.st23{fill:#3A3347;stroke:#121331;stroke-width:7;stroke-linecap:round;stroke-linejoin:round;stroke-miterlimit:10;}
	.st24{opacity:0.5;fill:#3A3347;}
	.st25{fill:url(#SVGID_1_);}
	.st26{fill:url(#SVGID_00000140722077207522641910000005075706444648596114_);}
	.st27{fill:url(#SVGID_00000139266867308236090180000014345982981710918022_);}
	.st28{fill:#B26836;}
	.st29{opacity:0.5;fill:#92140C;}
	.st30{fill:#F28BA8;}
	.st31{fill:none;stroke:#EBE6EF;stroke-width:7;stroke-linecap:round;stroke-linejoin:round;stroke-miterlimit:10;}
	.st32{opacity:0.5;fill:#B26836;}
	.st33{fill:#08A789;}
	.st34{fill:#FFFFFF;}
	.st35{fill:none;stroke:#B26836;stroke-width:7;stroke-linecap:round;stroke-linejoin:round;stroke-miterlimit:10;}
	.st36{opacity:0.99;fill:#EBE6EF;}
	.st37{fill:#F9C9C0;}
	.st38{opacity:0.5;fill:#F9C9C0;}
	.st39{opacity:0.5;fill:#F28BA8;}
	.st40{fill:none;stroke:#08A284;stroke-width:12;stroke-linecap:round;stroke-linejoin:round;stroke-miterlimit:10;}
	.st41{fill:none;stroke:#92140C;stroke-width:7;stroke-linecap:round;stroke-linejoin:round;stroke-miterlimit:10;}
	.st42{fill:none;stroke:#08A688;stroke-width:12;stroke-linecap:round;stroke-linejoin:round;stroke-miterlimit:10;}
	.st43{opacity:0.96;fill:#EBE6EF;}
	.st44{fill:none;stroke:#121331;stroke-width:12;stroke-linecap:round;stroke-linejoin:round;stroke-miterlimit:10;}
	.st45{fill:#08A88A;}
	.st46{fill:none;stroke:#2CA58D;stroke-width:7;stroke-linecap:round;stroke-linejoin:round;stroke-miterlimit:10;}
	.st47{fill:#121331;stroke:#FFC738;stroke-width:7;stroke-linecap:round;stroke-linejoin:round;stroke-miterlimit:10;}
	.st48{fill:#121331;stroke:#92140C;stroke-width:7;stroke-linejoin:round;stroke-miterlimit:10;}
	.st49{fill:none;stroke:#92140C;stroke-width:7;stroke-linejoin:round;stroke-miterlimit:10;}
	.st50{opacity:0.75;fill:#EBE6EF;}
	.st51{fill:#121331;stroke:#646E78;stroke-width:12;stroke-linecap:round;stroke-linejoin:round;stroke-miterlimit:10;}
	.st52{fill:#E94E12;}
	.st53{fill:#E84F16;}
	.st54{opacity:0.5;fill:#FFFFFF;}
</style>
<rect x="94.91" y="54.91" transform="matrix(-1.836970e-16 1 -1 -1.836970e-16 430 -3.173199e-09)" class="Styl_x0020_grafiki_x0020_606" width="240.18" height="320.19"/>
<path class="Styl_x0020_grafiki_x0020_1857" d="M98.83,332.09V97.91c0-1.66,1.34-3,3-3H54.91v240.18h46.92
	C100.17,335.09,98.83,333.75,98.83,332.09z"/>
<path class="st3" d="M375.09,338.59H54.91c-1.93,0-3.5-1.57-3.5-3.5V94.91c0-1.93,1.57-3.5,3.5-3.5h320.19c1.93,0,3.5,1.57,3.5,3.5
	v240.18C378.59,337.02,377.03,338.59,375.09,338.59z M58.41,331.59h313.19V98.41H58.41V331.59z"/>
<path class="st6" d="M375.09,350.09c-0.49,0-0.99-0.03-1.48-0.08c-0.48-0.05-0.97-0.12-1.45-0.22c-0.48-0.09-0.96-0.21-1.43-0.36
	c-0.46-0.14-0.93-0.31-1.38-0.49c-0.45-0.19-0.9-0.4-1.33-0.63c-0.43-0.23-0.85-0.48-1.26-0.75s-0.8-0.57-1.18-0.88
	c-0.38-0.31-0.75-0.64-1.1-0.99c-0.34-0.34-0.68-0.71-0.99-1.09c-0.31-0.38-0.6-0.78-0.87-1.19c-0.27-0.4-0.52-0.83-0.76-1.26
	c-0.22-0.43-0.43-0.88-0.62-1.33c-0.19-0.45-0.35-0.91-0.5-1.38c-0.14-0.47-0.26-0.94-0.36-1.42c-0.09-0.48-0.17-0.97-0.22-1.46
	c-0.05-0.49-0.07-0.98-0.07-1.47c0-0.49,0.02-0.99,0.07-1.48c0.05-0.48,0.13-0.97,0.22-1.45c0.1-0.48,0.22-0.96,0.36-1.43
	c0.15-0.47,0.31-0.93,0.5-1.38c0.19-0.45,0.4-0.9,0.62-1.33c0.24-0.43,0.49-0.85,0.76-1.26c0.27-0.41,0.56-0.81,0.87-1.18
	c0.31-0.38,0.65-0.75,0.99-1.1c0.35-0.35,0.72-0.68,1.1-0.99c0.38-0.31,0.77-0.6,1.18-0.87s0.83-0.53,1.26-0.76
	c0.43-0.23,0.88-0.44,1.33-0.62c0.45-0.19,0.92-0.36,1.38-0.5c0.47-0.14,0.95-0.26,1.43-0.36c0.48-0.1,0.97-0.17,1.45-0.22
	c0.98-0.1,1.98-0.1,2.95,0c0.49,0.05,0.98,0.12,1.46,0.22c0.48,0.1,0.96,0.22,1.42,0.36c0.47,0.14,0.93,0.31,1.39,0.5
	c0.45,0.18,0.89,0.39,1.32,0.62c0.43,0.23,0.86,0.49,1.26,0.76c0.41,0.27,0.81,0.56,1.19,0.87c0.38,0.31,0.75,0.64,1.09,0.99
	c0.35,0.35,0.68,0.72,0.99,1.1c0.31,0.37,0.61,0.77,0.88,1.18c0.27,0.41,0.52,0.83,0.75,1.26c0.23,0.43,0.44,0.88,0.63,1.33
	c0.19,0.45,0.35,0.91,0.49,1.38c0.15,0.47,0.27,0.95,0.37,1.43c0.09,0.48,0.17,0.97,0.21,1.45c0.05,0.49,0.08,0.99,0.08,1.48
	c0,0.49-0.03,0.98-0.08,1.47c-0.04,0.49-0.12,0.98-0.21,1.46c-0.1,0.48-0.22,0.95-0.37,1.42c-0.14,0.47-0.3,0.93-0.49,1.38
	c-0.19,0.45-0.4,0.9-0.63,1.33c-0.23,0.43-0.48,0.86-0.75,1.26c-0.27,0.41-0.57,0.81-0.88,1.19c-0.31,0.38-0.64,0.75-0.99,1.09
	c-0.34,0.35-0.71,0.68-1.09,0.99c-0.38,0.31-0.78,0.61-1.19,0.88c-0.4,0.27-0.83,0.52-1.26,0.75c-0.43,0.23-0.87,0.44-1.32,0.63
	c-0.46,0.18-0.92,0.35-1.39,0.49c-0.46,0.15-0.94,0.27-1.42,0.36c-0.48,0.1-0.97,0.17-1.46,0.22
	C376.07,350.06,375.58,350.09,375.09,350.09z"/>
<path class="st6" d="M54.9,109.91c-0.49,0-0.98-0.03-1.47-0.08c-0.49-0.04-0.98-0.12-1.46-0.21c-0.48-0.1-0.96-0.22-1.42-0.36
	c-0.47-0.15-0.93-0.31-1.39-0.5c-0.45-0.19-0.89-0.4-1.32-0.63s-0.86-0.48-1.26-0.75c-0.41-0.27-0.81-0.56-1.19-0.87
	c-0.38-0.31-0.75-0.65-1.09-0.99c-0.35-0.35-0.68-0.72-0.99-1.1c-0.31-0.38-0.61-0.78-0.88-1.18c-0.27-0.41-0.52-0.83-0.75-1.27
	c-0.23-0.43-0.44-0.87-0.63-1.32c-0.19-0.45-0.35-0.92-0.49-1.39c-0.15-0.46-0.27-0.94-0.36-1.42c-0.1-0.48-0.17-0.97-0.22-1.46
	c-0.05-0.49-0.08-0.98-0.08-1.47c0-0.49,0.03-0.99,0.08-1.48c0.05-0.48,0.12-0.97,0.22-1.45c0.09-0.48,0.21-0.96,0.36-1.43
	c0.14-0.46,0.3-0.93,0.49-1.38c0.19-0.45,0.4-0.9,0.63-1.33c0.23-0.43,0.48-0.85,0.75-1.26c0.27-0.41,0.57-0.8,0.88-1.18
	c0.31-0.38,0.64-0.75,0.99-1.1c0.34-0.34,0.71-0.68,1.09-0.99s0.78-0.6,1.19-0.87c0.4-0.27,0.83-0.53,1.26-0.76
	c0.43-0.22,0.87-0.44,1.32-0.62c0.46-0.19,0.92-0.36,1.39-0.5c0.46-0.14,0.94-0.26,1.42-0.36c0.48-0.09,0.97-0.17,1.46-0.22
	c0.97-0.1,1.97-0.1,2.95,0c0.48,0.05,0.97,0.13,1.45,0.22c0.48,0.1,0.96,0.22,1.43,0.36c0.46,0.14,0.93,0.31,1.38,0.5
	c0.45,0.18,0.9,0.4,1.33,0.62c0.43,0.23,0.85,0.49,1.26,0.76c0.41,0.27,0.8,0.56,1.18,0.87s0.75,0.65,1.1,0.99
	c0.34,0.35,0.68,0.72,0.99,1.1s0.6,0.77,0.87,1.18c0.27,0.41,0.53,0.83,0.76,1.26c0.22,0.43,0.44,0.88,0.62,1.33
	c0.19,0.45,0.36,0.92,0.5,1.38c0.14,0.47,0.26,0.95,0.36,1.43c0.1,0.48,0.17,0.97,0.22,1.45c0.05,0.49,0.07,0.99,0.07,1.48
	c0,0.49-0.02,0.98-0.07,1.47c-0.05,0.49-0.12,0.98-0.22,1.46c-0.1,0.48-0.22,0.96-0.36,1.42c-0.14,0.47-0.31,0.94-0.5,1.39
	c-0.18,0.45-0.4,0.89-0.62,1.32c-0.23,0.44-0.49,0.86-0.76,1.27c-0.27,0.4-0.56,0.8-0.87,1.18s-0.65,0.75-0.99,1.1
	c-0.35,0.34-0.72,0.68-1.1,0.99c-0.38,0.31-0.77,0.6-1.18,0.87c-0.41,0.27-0.83,0.52-1.26,0.75c-0.43,0.23-0.88,0.44-1.33,0.63
	c-0.45,0.19-0.92,0.35-1.38,0.5c-0.47,0.14-0.95,0.26-1.43,0.36c-0.48,0.09-0.97,0.17-1.45,0.21
	C55.89,109.88,55.39,109.91,54.9,109.91z"/>
<path class="st6" d="M375.09,109.91c-0.49,0-0.99-0.03-1.48-0.07c-0.48-0.05-0.97-0.13-1.45-0.22c-0.48-0.1-0.96-0.22-1.43-0.36
	c-0.46-0.15-0.93-0.31-1.38-0.5c-0.45-0.19-0.9-0.4-1.33-0.63c-0.43-0.23-0.85-0.48-1.26-0.75s-0.8-0.57-1.18-0.87
	c-0.38-0.32-0.75-0.65-1.1-1c-0.34-0.34-0.68-0.71-0.99-1.09c-0.31-0.38-0.6-0.78-0.87-1.19c-0.27-0.4-0.52-0.83-0.76-1.26
	c-0.22-0.43-0.43-0.87-0.62-1.32c-0.19-0.45-0.35-0.92-0.5-1.39c-0.14-0.46-0.26-0.94-0.36-1.42c-0.09-0.48-0.17-0.97-0.22-1.46
	c-0.05-0.49-0.07-0.98-0.07-1.47c0-0.49,0.02-0.99,0.07-1.48c0.05-0.48,0.13-0.97,0.22-1.45c0.1-0.48,0.22-0.96,0.36-1.43
	c0.15-0.46,0.31-0.93,0.5-1.38c0.19-0.45,0.4-0.9,0.62-1.33c0.24-0.43,0.49-0.85,0.76-1.26c0.27-0.41,0.56-0.8,0.87-1.18
	c0.31-0.38,0.65-0.75,0.99-1.1c0.35-0.34,0.72-0.68,1.1-0.99s0.77-0.6,1.18-0.87s0.83-0.53,1.26-0.76c0.43-0.22,0.88-0.44,1.33-0.62
	c0.45-0.19,0.92-0.36,1.38-0.5c0.47-0.14,0.95-0.26,1.43-0.36c0.48-0.09,0.97-0.17,1.45-0.22c0.98-0.09,1.98-0.09,2.95,0
	c0.49,0.05,0.98,0.13,1.46,0.22c0.48,0.1,0.96,0.22,1.42,0.36c0.47,0.14,0.93,0.31,1.39,0.5c0.45,0.18,0.89,0.4,1.32,0.62
	c0.43,0.23,0.86,0.49,1.26,0.76c0.41,0.27,0.81,0.56,1.19,0.87s0.75,0.65,1.09,0.99c0.35,0.35,0.68,0.72,0.99,1.1
	c0.31,0.38,0.61,0.77,0.88,1.18c0.27,0.41,0.52,0.83,0.75,1.26c0.23,0.43,0.44,0.88,0.63,1.33c0.19,0.45,0.35,0.92,0.49,1.38
	c0.15,0.47,0.27,0.95,0.37,1.43c0.09,0.48,0.17,0.97,0.21,1.45c0.05,0.49,0.08,0.99,0.08,1.48c0,0.49-0.03,0.98-0.08,1.47
	c-0.04,0.49-0.12,0.98-0.21,1.46c-0.1,0.48-0.22,0.96-0.37,1.42c-0.14,0.47-0.3,0.94-0.49,1.39c-0.19,0.45-0.4,0.89-0.63,1.32
	c-0.23,0.43-0.48,0.86-0.75,1.26c-0.27,0.41-0.57,0.81-0.88,1.19c-0.31,0.38-0.64,0.75-0.99,1.09c-0.34,0.35-0.71,0.68-1.09,1
	c-0.38,0.3-0.78,0.6-1.19,0.87c-0.4,0.27-0.83,0.52-1.26,0.75c-0.43,0.23-0.87,0.44-1.32,0.63c-0.46,0.19-0.92,0.35-1.39,0.5
	c-0.46,0.14-0.94,0.26-1.42,0.36c-0.48,0.09-0.97,0.17-1.46,0.22C376.07,109.88,375.58,109.91,375.09,109.91z"/>
<path class="st6" d="M54.9,350.09c-0.49,0-0.98-0.03-1.47-0.08c-0.49-0.05-0.98-0.12-1.46-0.22c-0.48-0.09-0.96-0.21-1.42-0.36
	c-0.47-0.14-0.93-0.31-1.39-0.49c-0.45-0.19-0.89-0.4-1.32-0.63s-0.86-0.48-1.26-0.75c-0.41-0.27-0.81-0.57-1.19-0.88
	c-0.38-0.31-0.75-0.64-1.09-0.99c-0.35-0.34-0.68-0.71-0.99-1.09c-0.31-0.38-0.61-0.78-0.88-1.19c-0.27-0.4-0.52-0.83-0.75-1.26
	c-0.23-0.43-0.44-0.88-0.63-1.33c-0.19-0.45-0.35-0.91-0.49-1.38c-0.15-0.47-0.27-0.94-0.36-1.42c-0.1-0.48-0.17-0.97-0.22-1.46
	c-0.05-0.49-0.08-0.98-0.08-1.47c0-0.49,0.03-0.99,0.08-1.48c0.05-0.48,0.12-0.97,0.22-1.45c0.09-0.48,0.21-0.96,0.36-1.43
	c0.14-0.46,0.3-0.93,0.49-1.38c0.19-0.45,0.4-0.9,0.63-1.33c0.23-0.43,0.48-0.85,0.75-1.26c0.27-0.41,0.57-0.81,0.88-1.18
	c0.31-0.38,0.64-0.75,0.99-1.1c0.34-0.35,0.71-0.68,1.09-0.99c0.38-0.31,0.78-0.6,1.19-0.87c0.4-0.27,0.83-0.53,1.26-0.76
	s0.87-0.44,1.32-0.62c0.46-0.19,0.92-0.36,1.39-0.5c0.46-0.14,0.94-0.26,1.42-0.36c0.48-0.1,0.97-0.17,1.46-0.22
	c0.97-0.1,1.97-0.1,2.95,0c0.48,0.05,0.97,0.12,1.45,0.22c0.48,0.1,0.96,0.22,1.43,0.36c0.46,0.14,0.93,0.31,1.38,0.5
	c0.45,0.18,0.9,0.39,1.33,0.62c0.43,0.23,0.85,0.49,1.26,0.76c0.41,0.27,0.8,0.56,1.18,0.87c0.38,0.31,0.75,0.64,1.1,0.99
	c0.34,0.35,0.68,0.72,0.99,1.1c0.31,0.37,0.6,0.77,0.87,1.18c0.27,0.41,0.53,0.83,0.76,1.26c0.22,0.43,0.44,0.88,0.62,1.33
	c0.19,0.45,0.36,0.92,0.5,1.38c0.14,0.47,0.26,0.95,0.36,1.43c0.1,0.48,0.17,0.97,0.22,1.45c0.05,0.49,0.07,0.99,0.07,1.48
	c0,0.49-0.02,0.98-0.07,1.47c-0.05,0.49-0.12,0.98-0.22,1.46c-0.1,0.48-0.22,0.95-0.36,1.42s-0.31,0.93-0.5,1.38
	c-0.18,0.45-0.4,0.9-0.62,1.33c-0.23,0.43-0.49,0.86-0.76,1.26c-0.27,0.41-0.56,0.81-0.87,1.19c-0.31,0.38-0.65,0.75-0.99,1.09
	c-0.35,0.35-0.72,0.68-1.1,0.99c-0.38,0.31-0.77,0.61-1.18,0.88c-0.41,0.27-0.83,0.52-1.26,0.75c-0.43,0.23-0.88,0.44-1.33,0.63
	c-0.45,0.18-0.92,0.35-1.38,0.49c-0.47,0.15-0.95,0.27-1.43,0.36c-0.48,0.1-0.97,0.17-1.45,0.22
	C55.89,350.06,55.39,350.09,54.9,350.09z"/>
</svg>
