<?xml version="1.0" encoding="UTF-8" standalone="no"?> <svg id="Layer_1" data-name="Layer 1" xmlns="http://www.w3.org/2000/svg" viewBox="0 0 128 128"><defs><style>.cls-1{fill:#2d3e50;}.cls-2{fill:#2e79bd;}</style></defs><title>x</title><path class="cls-1" d="M46.90581,42.674A35.42552,35.42552,0,0,0,10.38211,72.45184C10.1422,73.96455,4.024,106.515,2.0065,117.24214a1.76916,1.76916,0,0,0,2.49032,1.92829L27.321,108.4722A35.3766,35.3766,0,1,0,46.90581,42.674Z"/><path class="cls-2" d="M107.1249,59.44786A39.71014,39.71014,0,1,0,30.54973,38.41215a42.11271,42.11271,0,0,1,9.9759-2.39641A31.03516,31.03516,0,0,1,98.23685,58.766l-.76859,2.15993,13.25916,18.16237c-6.43251.03941-15.32055.10248-23.15623.15767A41.96888,41.96888,0,0,1,86.41634,87.929c7.95335-.05964,29.43073-.19925,37.85006-.25365a1.76858,1.76858,0,0,0,1.41506-2.813Z"/></svg>