<svg xmlns="http://www.w3.org/2000/svg" width="25" height="25" viewBox="0 0 25 25"><g transform="translate(0 -1027.362)"><circle cx="37.045" cy="28.409" r="12.5" fill="#50b748" fill-rule="evenodd" transform="translate(-24.545 1011.453)"/><path fill="#10a711" style="line-height:normal;text-indent:0;text-align:start;text-decoration-line:none;text-decoration-style:solid;text-decoration-color:#000;text-transform:none;block-progression:tb;isolation:auto;mix-blend-mode:normal" d="m 15.615234,1051.952 a 12.5,12.5 0 0 0 0.578125,-0.1484 12.5,12.5 0 0 0 1.173829,-0.4277 12.5,12.5 0 0 0 1.125,-0.543 12.5,12.5 0 0 0 1.066406,-0.6543 12.5,12.5 0 0 0 0.99414,-0.7559 12.5,12.5 0 0 0 0.914063,-0.8515 12.5,12.5 0 0 0 0.824219,-0.9395 12.5,12.5 0 0 0 0.726562,-1.0156 12.5,12.5 0 0 0 0.623047,-1.084 12.5,12.5 0 0 0 0.509766,-1.1406 12.5,12.5 0 0 0 0.21289,-0.6426 l -7.625,-7.625 -0.002,-0 c -0.242968,-0.2431 -0.507469,-0.4654 -0.789015,-0.6641 0,0 -0.002,-0 -0.002,-0 -0.282346,-0.1991 -0.581153,-0.3729 -0.896438,-0.5215 -0.240607,-0.1135 -0.497135,-0.1963 -0.753906,-0.2774 L 13,1033.3622 l -1,0 0,1.0234 c -2.5458263,0.2114 -4.6427183,2.0185 -5.2890625,4.4161 -0.092335,0.3425 -0.1553517,0.6968 -0.1855469,1.0605 l -1.0253906,0 0,1 1.2988281,1.2988 c 0.1873476,0.5918 0.4486016,1.1516 0.7988281,1.6485 0.1993867,0.2828 0.4219159,0.547 0.6660157,0.791 0.00325,0 0.00651,0.01 0.00977,0.01 l 7.3417961,7.3418 z" color="#000" font-family="sans-serif" font-weight="400"/><path fill="#fff" d="m 7.4921875,1037.3661 0,1.0234 c -2.9095156,0.2416 -5.2330483,2.5671 -5.4746094,5.4766 l -1.0253906,0 0,1 1.0253906,0 c 0.2422711,2.9088 2.5656276,5.2331 5.4746094,5.4746 l 0,1.0254 1,0 0,-1.0254 c 2.9089815,-0.2415 5.2323385,-2.5658 5.4746095,-5.4746 l 1.025391,0 0,-1 -1.025391,0 c -0.241561,-2.9095 -2.565094,-5.235 -5.4746095,-5.4766 l 0,-1.0234 -1,0 z m 0.5,2 c 2.7673455,0 5.0000005,2.2327 5.0000005,5 0,2.7674 -2.232655,5 -5.0000005,5 -2.7673461,0 -5,-2.2326 -5,-5 0,-2.7673 2.2326539,-5 5,-5 z m 0,2 c -1.6509303,0 -3.000012,1.3491 -3,3 -1.2e-5,1.651 1.3490697,3 3,3 1.6509301,0 3.0000115,-1.349 3.0000005,-3 1.1e-5,-1.6509 -1.3490704,-3 -3.0000005,-3 z m 0,1 c 1.1104875,0 2.000008,0.8895 2,2 8e-6,1.1105 -0.8895125,2 -2,2 -1.1104876,0 -2.000008,-0.8895 -2,-2 -8e-6,-1.1105 0.8895124,-2 2,-2 z" color="#000" font-family="sans-serif" font-weight="400" overflow="visible" transform="translate(4.508 -4.004)" style="line-height:normal;text-indent:0;text-align:start;text-decoration-line:none;text-decoration-style:solid;text-decoration-color:#000;text-transform:none;block-progression:tb;isolation:auto;mix-blend-mode:normal"/></g></svg>