<svg id="visual" viewBox="0 0 900 600" width="900" height="600" xmlns="http://www.w3.org/2000/svg" xmlns:xlink="http://www.w3.org/1999/xlink" version="1.1"><path d="M0 140L21.5 129.2C43 118.3 86 96.7 128.8 84C171.7 71.3 214.3 67.7 257.2 81.5C300 95.3 343 126.7 385.8 134C428.7 141.3 471.3 124.7 514.2 114C557 103.3 600 98.7 642.8 102.3C685.7 106 728.3 118 771.2 118.2C814 118.3 857 106.7 878.5 100.8L900 95L900 0L878.5 0C857 0 814 0 771.2 0C728.3 0 685.7 0 642.8 0C600 0 557 0 514.2 0C471.3 0 428.7 0 385.8 0C343 0 300 0 257.2 0C214.3 0 171.7 0 128.8 0C86 0 43 0 21.5 0L0 0Z" fill="#00B5D1" stroke-linecap="round" stroke-linejoin="miter"></path></svg>